<svg xmlns="http://www.w3.org/2000/svg" width="865.538" height="646.068" viewBox="0 0 865.538 646.068">
  <g id="Group_166" data-name="Group 166" transform="translate(-52.516 -81.247)">
    <g id="Group_134" data-name="Group 134" transform="translate(679.823 82.955)">
      <circle id="Ellipse_28" data-name="Ellipse 28" cx="119.116" cy="119.116" r="119.116" fill="#66acbe"/>
    </g>
    <g id="Path_6" data-name="Path 6" transform="translate(224.95 387.545)">
      <path id="Path_119" data-name="Path 119" d="M792.411,426.953A129.065,129.065,0,0,0,663.346,297.888h0a128.442,128.442,0,0,0-70.167,20.731A169.941,169.941,0,0,0,272.41,344.853,108.59,108.59,0,0,0,128.516,447.486h0A108.531,108.531,0,0,0,237.045,556.017h426.3A129.065,129.065,0,0,0,792.411,426.953Z" transform="translate(-128.516 -216.247)" fill="#66acbe"/>
    </g>
    <g id="Path_6-2" data-name="Path 6" transform="translate(52.516 81.247)">
      <path id="Path_120" data-name="Path 120" d="M716.411,291.953A129.065,129.065,0,0,0,587.346,162.888h0a128.441,128.441,0,0,0-70.167,20.731A169.941,169.941,0,0,0,196.41,209.853,108.59,108.59,0,0,0,52.516,312.486h0A108.531,108.531,0,0,0,161.045,421.017h426.3A129.065,129.065,0,0,0,716.411,291.953Z" transform="translate(-52.516 -81.247)" fill="#66acbe"/>
    </g>
    <g id="Group_135" data-name="Group 135" transform="translate(282.77 126.064)">
      <rect id="Rectangle_84" data-name="Rectangle 84" width="517.303" height="499.152" rx="11.576" fill="#386c79"/>
    </g>
    <g id="Group_140" data-name="Group 140" transform="translate(299.787 248.583)">
      <g id="Group_136" data-name="Group 136">
        <rect id="Rectangle_85" data-name="Rectangle 85" width="112.834" height="112.834" rx="6.356" fill="#fff"/>
      </g>
      <g id="Group_137" data-name="Group 137" transform="translate(123.479)">
        <rect id="Rectangle_86" data-name="Rectangle 86" width="112.834" height="112.834" rx="6.356" fill="#fff"/>
      </g>
      <g id="Group_138" data-name="Group 138" transform="translate(246.957)">
        <rect id="Rectangle_87" data-name="Rectangle 87" width="112.834" height="112.834" rx="6.356" fill="#fff"/>
      </g>
      <g id="Group_139" data-name="Group 139" transform="translate(370.436)">
        <rect id="Rectangle_88" data-name="Rectangle 88" width="112.834" height="112.834" rx="6.356" fill="#fff"/>
      </g>
    </g>
    <g id="Group_145" data-name="Group 145" transform="translate(299.787 371.102)">
      <g id="Group_141" data-name="Group 141" transform="translate(0 0)">
        <rect id="Rectangle_89" data-name="Rectangle 89" width="112.834" height="112.834" rx="6.356" fill="#fff"/>
      </g>
      <g id="Group_142" data-name="Group 142" transform="translate(123.479 0)">
        <rect id="Rectangle_90" data-name="Rectangle 90" width="112.834" height="112.834" rx="6.356" fill="#fff"/>
      </g>
      <g id="Group_143" data-name="Group 143" transform="translate(246.957 0)">
        <rect id="Rectangle_91" data-name="Rectangle 91" width="112.834" height="112.834" rx="6.356" fill="#fff"/>
      </g>
      <g id="Group_144" data-name="Group 144" transform="translate(370.436 0)">
        <rect id="Rectangle_92" data-name="Rectangle 92" width="112.834" height="112.834" rx="6.356" fill="#fff"/>
      </g>
    </g>
    <g id="Group_150" data-name="Group 150" transform="translate(299.787 493.621)">
      <g id="Group_146" data-name="Group 146">
        <rect id="Rectangle_93" data-name="Rectangle 93" width="112.834" height="112.834" rx="6.356" fill="#fff"/>
      </g>
      <g id="Group_147" data-name="Group 147" transform="translate(123.479)">
        <rect id="Rectangle_94" data-name="Rectangle 94" width="112.834" height="112.834" rx="6.356" fill="#fff"/>
      </g>
      <g id="Group_148" data-name="Group 148" transform="translate(246.957)">
        <rect id="Rectangle_95" data-name="Rectangle 95" width="112.834" height="112.834" rx="6.356" fill="#fff"/>
      </g>
      <g id="Group_149" data-name="Group 149" transform="translate(370.436)">
        <rect id="Rectangle_96" data-name="Rectangle 96" width="112.834" height="112.834" rx="6.356" fill="#fff"/>
      </g>
    </g>
    <g id="Group_151" data-name="Group 151" transform="translate(345.164 269.003)">
      <path id="Path_121" data-name="Path 121" d="M193.085,170.925v-2.294l6.326-1.836-6.326-1.833V164H192.4v6.934l-10.9,35.891v51.254h22.482V206.825Zm-.343,70.68a4.732,4.732,0,1,1,4.731-4.731A4.731,4.731,0,0,1,192.742,241.6Zm0-17.513a4.733,4.733,0,1,1,4.731-4.733A4.733,4.733,0,0,1,192.742,224.091Z" transform="translate(-181.5 -164)" fill="#1f414a"/>
    </g>
    <g id="Group_152" data-name="Group 152" transform="translate(574.958 400.597)">
      <path id="Path_122" data-name="Path 122" d="M316.753,225.885l3.17,6.421a6.972,6.972,0,0,0,5.246,3.812l7.086,1.03a6.967,6.967,0,0,1,3.862,11.884l-5.128,5a6.963,6.963,0,0,0-2,6.167l1.209,7.056a6.968,6.968,0,0,1-10.11,7.347l-6.337-3.333a6.972,6.972,0,0,0-6.484,0l-6.337,3.333a6.968,6.968,0,0,1-10.11-7.347l1.209-7.056a6.963,6.963,0,0,0-2-6.167l-5.128-5a6.967,6.967,0,0,1,3.862-11.884l7.086-1.03a6.972,6.972,0,0,0,5.246-3.812l3.17-6.421A6.967,6.967,0,0,1,316.753,225.885Z" transform="translate(-282.781 -222)" fill="#1f414a"/>
    </g>
    <g id="Group_155" data-name="Group 155" transform="translate(450.667 534.461)">
      <g id="Group_153" data-name="Group 153" transform="translate(0 5.645)">
        <path id="Path_123" data-name="Path 123" d="M256.361,302.36,228,283.513v28.93c0,2.818,1.786,5.1,3.986,5.1h48.749c2.2,0,3.986-2.287,3.986-5.1V283.488Z" transform="translate(-228 -283.488)" fill="#1f414a"/>
      </g>
      <g id="Group_154" data-name="Group 154" transform="translate(1.461)">
        <path id="Path_124" data-name="Path 124" d="M255.544,300.061l26.884-17.89A3.475,3.475,0,0,0,279.918,281H231.169a3.48,3.48,0,0,0-2.525,1.187Z" transform="translate(-228.644 -281)" fill="#1f414a"/>
      </g>
    </g>
    <g id="Group_162" data-name="Group 162" transform="translate(385.437 97.703)">
      <g id="Group_156" data-name="Group 156">
        <rect id="Rectangle_97" data-name="Rectangle 97" width="15.882" height="61.26" rx="3.5" transform="translate(3.403 3.403)" fill="#386c79"/>
        <path id="Path_125" data-name="Path 125" d="M210.594,156.566a11.357,11.357,0,0,1-11.344-11.344V99.844a11.344,11.344,0,1,1,22.689,0v45.377A11.357,11.357,0,0,1,210.594,156.566Zm0-61.26a4.542,4.542,0,0,0-4.538,4.538v45.377a4.538,4.538,0,1,0,9.075,0V99.844A4.542,4.542,0,0,0,210.594,95.307Z" transform="translate(-199.25 -88.5)" fill="#fff"/>
      </g>
      <g id="Group_157" data-name="Group 157" transform="translate(57.856 1.134)">
        <rect id="Rectangle_98" data-name="Rectangle 98" width="15.882" height="61.26" rx="3.5" transform="translate(3.403 3.403)" fill="#386c79"/>
        <path id="Path_126" data-name="Path 126" d="M236.094,157.066a11.357,11.357,0,0,1-11.344-11.344V100.344a11.344,11.344,0,0,1,22.689,0v45.377A11.357,11.357,0,0,1,236.094,157.066Zm0-61.26a4.542,4.542,0,0,0-4.538,4.538v45.377a4.538,4.538,0,0,0,9.076,0V100.344A4.542,4.542,0,0,0,236.094,95.807Z" transform="translate(-224.75 -89)" fill="#fff"/>
      </g>
      <g id="Group_158" data-name="Group 158" transform="translate(115.712 2.269)">
        <rect id="Rectangle_99" data-name="Rectangle 99" width="15.882" height="61.26" rx="3.5" transform="translate(3.403 3.403)" fill="#386c79"/>
        <path id="Path_127" data-name="Path 127" d="M261.594,157.566a11.357,11.357,0,0,1-11.344-11.344V100.844a11.344,11.344,0,0,1,22.689,0v45.377A11.357,11.357,0,0,1,261.594,157.566Zm0-61.26a4.542,4.542,0,0,0-4.538,4.538v45.377a4.538,4.538,0,1,0,9.075,0V100.844A4.542,4.542,0,0,0,261.594,96.307Z" transform="translate(-250.25 -89.5)" fill="#fff"/>
      </g>
      <g id="Group_159" data-name="Group 159" transform="translate(173.569 3.403)">
        <rect id="Rectangle_100" data-name="Rectangle 100" width="15.882" height="61.26" rx="3.5" transform="translate(3.403 3.403)" fill="#386c79"/>
        <path id="Path_128" data-name="Path 128" d="M287.094,158.066a11.357,11.357,0,0,1-11.344-11.344V101.344a11.344,11.344,0,1,1,22.689,0v45.377A11.357,11.357,0,0,1,287.094,158.066Zm0-61.26a4.542,4.542,0,0,0-4.538,4.538v45.377a4.538,4.538,0,1,0,9.076,0V101.344A4.542,4.542,0,0,0,287.094,96.807Z" transform="translate(-275.75 -90)" fill="#fff"/>
      </g>
      <g id="Group_160" data-name="Group 160" transform="translate(231.425 4.538)">
        <rect id="Rectangle_101" data-name="Rectangle 101" width="15.882" height="61.26" rx="3.5" transform="translate(3.403 3.403)" fill="#386c79"/>
        <path id="Path_129" data-name="Path 129" d="M312.594,158.566a11.357,11.357,0,0,1-11.344-11.344V101.844a11.344,11.344,0,0,1,22.689,0v45.377A11.357,11.357,0,0,1,312.594,158.566Zm0-61.26a4.542,4.542,0,0,0-4.538,4.538v45.377a4.538,4.538,0,1,0,9.076,0V101.844A4.542,4.542,0,0,0,312.594,97.307Z" transform="translate(-301.25 -90.5)" fill="#fff"/>
      </g>
      <g id="Group_161" data-name="Group 161" transform="translate(289.281 5.672)">
        <rect id="Rectangle_102" data-name="Rectangle 102" width="15.882" height="61.26" rx="3.5" transform="translate(3.403 3.403)" fill="#386c79"/>
        <path id="Path_130" data-name="Path 130" d="M338.094,159.066a11.357,11.357,0,0,1-11.344-11.344V102.344a11.344,11.344,0,0,1,22.689,0v45.377A11.357,11.357,0,0,1,338.094,159.066Zm0-61.26a4.542,4.542,0,0,0-4.538,4.538v45.377a4.538,4.538,0,1,0,9.076,0V102.344A4.542,4.542,0,0,0,338.094,97.807Z" transform="translate(-326.75 -91)" fill="#fff"/>
      </g>
    </g>
    <g id="Group_163" data-name="Group 163" transform="translate(694.121 273)">
      <rect id="Rectangle_4" data-name="Rectangle 4" width="32.641" height="37.732" transform="translate(0 27.259)" fill="#1f414a"/>
      <rect id="Rectangle_103" data-name="Rectangle 103" width="32.39" height="37.733" transform="translate(32.642 27.257)" fill="#102126"/>
      <path id="Path_131" data-name="Path 131" d="M367.943,193.019H335.3l16.32-27.256h0Z" transform="translate(-335.301 -165.761)" fill="#1f414a"/>
      <path id="Path_132" data-name="Path 132" d="M379.219,193.019H368.686l-16.743-27.256h8.549Z" transform="translate(-314.187 -165.761)" fill="#386c79"/>
      <path id="Path_133" data-name="Path 133" d="M369.476,193.019H358.814L342.5,165.762h10.7Z" transform="translate(-326.172 -165.761)" fill="#386c79"/>
      <rect id="Rectangle_104" data-name="Rectangle 104" width="0.004" height="31.767" transform="translate(16.322 0.002) rotate(-30.905)" fill="#de7c46"/>
      <path id="Path_134" data-name="Path 134" d="M352.828,193.023h32.394l0,0H374.685l-16.743-27.256H347.215l16.276,27.256H352.828Z" transform="translate(-320.186 -165.761)" fill="#66acbe"/>
      <path id="Rectangle_6" data-name="Rectangle 6" d="M345.819,183.6h0a6.677,6.677,0,0,1,6.777,6.575l.27,17.858h0l-13.352.2h0l-.27-17.858a6.676,6.676,0,0,1,6.575-6.777Z" transform="translate(-330.302 -143.124)" fill="#102126"/>
      <circle id="Ellipse_7" data-name="Ellipse 7" cx="6.352" cy="6.352" r="6.352" transform="translate(42.526 40.494)" fill="#1f414a"/>
      <path id="Path_135" data-name="Path 135" d="M360.35,177.777a5.331,5.331,0,0,1-10.661,0" transform="translate(-317.047 -150.516)" fill="#386c79"/>
      <path id="Path_136" data-name="Path 136" d="M369.854,177.777a5.265,5.265,0,1,1-10.53,0" transform="translate(-304.821 -150.516)" fill="#386c79"/>
      <path id="Path_137" data-name="Path 137" d="M365.587,177.777a5.608,5.608,0,0,1-11.2,0" transform="translate(-311.085 -150.516)" fill="#66acbe"/>
    </g>
    <g id="Group_164" data-name="Group 164" transform="translate(570.643 516.921)">
      <rect id="Rectangle_4-2" data-name="Rectangle 4" width="32.641" height="37.732" transform="translate(0 27.259)" fill="#1f414a"/>
      <rect id="Rectangle_105" data-name="Rectangle 105" width="32.39" height="37.733" transform="translate(32.642 27.258)" fill="#102126"/>
      <path id="Path_138" data-name="Path 138" d="M313.52,300.526H280.88L297.2,273.27h0Z" transform="translate(-280.878 -273.269)" fill="#1f414a"/>
      <path id="Path_139" data-name="Path 139" d="M324.8,300.526H314.263L297.52,273.27h8.549Z" transform="translate(-259.764 -273.269)" fill="#386c79"/>
      <path id="Path_140" data-name="Path 140" d="M315.053,300.526H304.391L288.075,273.27h10.7Z" transform="translate(-271.749 -273.269)" fill="#386c79"/>
      <rect id="Rectangle_106" data-name="Rectangle 106" width="0.004" height="31.767" transform="translate(16.322 0.002) rotate(-30.905)" fill="#de7c46"/>
      <path id="Path_141" data-name="Path 141" d="M298.405,300.53H330.8l0,0H320.262L303.519,273.27H292.792l16.276,27.257H298.405Z" transform="translate(-265.763 -273.269)" fill="#66acbe"/>
      <path id="Rectangle_6-2" data-name="Rectangle 6" d="M291.4,291.111h0a6.677,6.677,0,0,1,6.777,6.575l.27,17.858h0l-13.352.2h0l-.27-17.858a6.677,6.677,0,0,1,6.575-6.777Z" transform="translate(-275.879 -250.631)" fill="#102126"/>
      <circle id="Ellipse_7-2" data-name="Ellipse 7" cx="6.352" cy="6.352" r="6.352" transform="translate(42.526 40.494)" fill="#1f414a"/>
      <path id="Path_142" data-name="Path 142" d="M305.927,285.285a5.331,5.331,0,0,1-10.661,0" transform="translate(-262.624 -258.023)" fill="#386c79"/>
      <path id="Path_143" data-name="Path 143" d="M315.431,285.285a5.265,5.265,0,1,1-10.53,0" transform="translate(-250.399 -258.023)" fill="#386c79"/>
      <path id="Path_144" data-name="Path 144" d="M311.164,285.285a5.608,5.608,0,0,1-11.2,0" transform="translate(-256.662 -258.023)" fill="#66acbe"/>
    </g>
    <g id="Group_165" data-name="Group 165" transform="translate(447.164 394.961)">
      <rect id="Rectangle_4-3" data-name="Rectangle 4" width="32.641" height="37.732" transform="translate(0 27.259)" fill="#1f414a"/>
      <rect id="Rectangle_107" data-name="Rectangle 107" width="32.39" height="37.733" transform="translate(32.642 27.258)" fill="#102126"/>
      <path id="Path_145" data-name="Path 145" d="M259.1,246.772h-32.64l16.32-27.256h0Z" transform="translate(-226.455 -219.515)" fill="#1f414a"/>
      <path id="Path_146" data-name="Path 146" d="M270.374,246.772H259.84L243.1,219.516h8.549Z" transform="translate(-205.342 -219.515)" fill="#386c79"/>
      <path id="Path_147" data-name="Path 147" d="M260.63,246.772H249.968l-16.316-27.256h10.7Z" transform="translate(-217.326 -219.515)" fill="#386c79"/>
      <rect id="Rectangle_108" data-name="Rectangle 108" width="0.004" height="31.767" transform="translate(16.322 0.002) rotate(-30.905)" fill="#de7c46"/>
      <path id="Path_148" data-name="Path 148" d="M243.982,246.777h32.394l0,0H265.839L249.1,219.516H238.369l16.276,27.256H243.982Z" transform="translate(-211.34 -219.515)" fill="#66acbe"/>
      <path id="Rectangle_6-3" data-name="Rectangle 6" d="M236.973,237.357h0a6.677,6.677,0,0,1,6.777,6.575l.27,17.858h0l-13.352.2h0l-.27-17.858a6.677,6.677,0,0,1,6.575-6.777Z" transform="translate(-221.456 -196.877)" fill="#102126"/>
      <circle id="Ellipse_7-3" data-name="Ellipse 7" cx="6.352" cy="6.352" r="6.352" transform="translate(42.526 40.494)" fill="#1f414a"/>
      <path id="Path_149" data-name="Path 149" d="M251.507,231.531a5.332,5.332,0,0,1-10.664,0" transform="translate(-208.201 -204.269)" fill="#386c79"/>
      <path id="Path_150" data-name="Path 150" d="M261.008,231.531a5.265,5.265,0,1,1-10.53,0" transform="translate(-195.976 -204.269)" fill="#386c79"/>
      <path id="Path_151" data-name="Path 151" d="M256.74,231.531a5.607,5.607,0,0,1-11.2,0" transform="translate(-202.238 -204.269)" fill="#66acbe"/>
    </g>
  </g>
</svg>
