<svg xmlns="http://www.w3.org/2000/svg" width="941.826" height="956.147" viewBox="0 0 941.826 956.147">
  <g id="Group_195" data-name="Group 195" transform="translate(-147.748 -188.236)">
    <path id="Path_20" data-name="Path 20" d="M193.194,707.6h0a114.754,114.754,0,0,0,106.063,0h0L246.225,523.86Z" transform="translate(6.012 44.402)" fill="#e7b443"/>
    <path id="Path_4" data-name="Path 4" d="M208.676,731.115a144.075,144.075,0,0,1,288.15,0Z" transform="translate(8.061 52.762)" fill="#ca3640"/>
    <g id="Group_29" data-name="Group 29" transform="translate(337.049 188.236)">
      <g id="Group_26" data-name="Group 26">
        <circle id="Ellipse_14" data-name="Ellipse 14" cx="220.72" cy="220.72" r="220.72" fill="#56ab95"/>
      </g>
      <g id="Group_27" data-name="Group 27" transform="translate(38.678 19.959)">
        <path id="Path_36" data-name="Path 36" d="M531.132,607.384a60.253,60.253,0,0,1-38.773-13.91c-9.611-8.064-21.219-23.2-21.942-49.489-.4-14.625,2.628-30.633,9.036-47.851-11.708,14.154-24.057,24.786-36.923,31.751-23.133,12.52-42.041,10.033-53.831,5.743a60.99,60.99,0,0,1-38.772-67.157c2.179-12.356,9.48-29.974,31.888-43.746,12.466-7.66,27.843-13.041,45.959-16.1-18.117-3.057-33.493-8.44-45.959-16.1-22.408-13.771-29.709-31.391-31.888-43.746A60.99,60.99,0,0,1,388.7,279.621c11.789-4.291,30.7-6.779,53.831,5.743,12.866,6.965,25.215,17.594,36.923,31.751-6.408-17.219-9.438-33.227-9.036-47.852.722-26.292,12.331-41.424,21.942-49.489a60.99,60.99,0,0,1,77.544,0c9.611,8.064,21.219,23.2,21.942,49.489.4,14.625-2.628,30.633-9.036,47.852,11.708-14.154,24.056-24.787,36.923-31.751,23.131-12.52,42.04-10.033,53.831-5.743a60.989,60.989,0,0,1,38.772,67.155c-2.179,12.356-9.48,29.975-31.888,43.746-12.465,7.66-27.843,13.041-45.959,16.1,18.117,3.057,33.493,8.44,45.959,16.1,22.408,13.772,29.709,31.391,31.888,43.746a60.99,60.99,0,0,1-38.769,67.155c-11.791,4.29-30.7,6.778-53.831-5.743-12.866-6.965-25.215-17.592-36.923-31.751,6.408,17.218,9.438,33.226,9.036,47.851-.722,26.293-12.331,41.425-21.942,49.489A60.256,60.256,0,0,1,531.132,607.384Zm-29.5-143.632c-31.57,54.679-33.585,101.445-5.394,125.1a54.89,54.89,0,0,0,69.789,0c28.194-23.656,26.174-70.421-5.394-125.1l5.224-3.016c31.57,54.68,71.061,79.807,105.643,67.221a54.89,54.89,0,0,0,34.9-60.44c-6.391-36.241-47.9-57.879-111.038-57.879v-6.033c63.138,0,104.647-21.636,111.038-57.879a54.888,54.888,0,0,0-34.9-60.439c-34.584-12.588-74.074,12.542-105.643,67.221l-5.224-3.016c31.568-54.679,33.585-101.445,5.4-125.1a54.889,54.889,0,0,0-69.79,0c-28.194,23.655-26.173,70.421,5.4,125.1l-5.224,3.016c-31.568-54.679-71.06-79.808-105.643-67.221a54.89,54.89,0,0,0-34.894,60.439c6.391,36.241,47.9,57.879,111.038,57.879v6.033c-63.138,0-104.647,21.637-111.038,57.879a54.891,54.891,0,0,0,34.894,60.44c34.579,12.584,74.074-12.542,105.643-67.221Z" transform="translate(-349.09 -205.863)" fill="#fff"/>
      </g>
      <g id="Group_28" data-name="Group 28" transform="translate(19.96 38.678)">
        <path id="Path_37" data-name="Path 37" d="M603.318,586.526a58.347,58.347,0,0,1-10.152-.887c-12.356-2.179-29.975-9.48-43.746-31.888-7.661-12.464-13.041-27.843-16.1-45.959-3.057,18.117-8.44,33.493-16.1,45.959-13.772,22.409-31.391,29.71-43.746,31.888a58.567,58.567,0,0,1-10.152.887c-24.881,0-48.312-15.777-57-39.659-4.29-11.789-6.778-30.7,5.743-53.831,6.965-12.866,17.594-25.215,31.752-36.923-17.22,6.409-33.219,9.44-47.852,9.036-26.293-.722-41.425-12.331-49.489-21.942a60.991,60.991,0,0,1,0-77.545c8.065-9.611,23.2-21.219,49.489-21.942,14.629-.4,30.632,2.628,47.851,9.036-14.154-11.708-24.786-24.057-31.751-36.922-12.521-23.132-10.033-42.04-5.743-53.831a60.989,60.989,0,0,1,67.155-38.772c12.356,2.179,29.975,9.48,43.746,31.888,7.66,12.465,13.041,27.843,16.1,45.959,3.057-18.117,8.44-33.493,16.1-45.959,13.772-22.408,31.391-29.709,43.746-31.888A60.989,60.989,0,0,1,660.32,262c4.291,11.789,6.778,30.7-5.743,53.829-6.965,12.866-17.594,25.215-31.752,36.923,17.22-6.41,33.223-9.435,47.852-9.036,26.293.722,41.425,12.331,49.489,21.942a60.988,60.988,0,0,1,0,77.545c-8.065,9.611-23.2,21.219-49.489,21.942-14.626.4-30.632-2.628-47.851-9.036,14.154,11.708,24.786,24.056,31.751,36.923,12.521,23.131,10.034,42.04,5.743,53.829C651.628,570.748,628.2,586.525,603.318,586.526ZM479.205,439.161C424.527,470.73,399.4,510.222,411.984,544.8a54.89,54.89,0,0,0,60.44,34.9c36.243-6.391,57.879-47.9,57.879-111.037h6.033c0,63.137,21.637,104.646,57.879,111.037a54.89,54.89,0,0,0,60.439-34.9c12.587-34.58-12.542-74.074-67.222-105.643l3.016-5.224c54.678,31.568,101.444,33.585,125.1,5.394a54.89,54.89,0,0,0,0-69.789c-23.656-28.194-70.421-26.174-125.1,5.394l-3.016-5.224c54.679-31.568,79.809-71.061,67.222-105.643a54.886,54.886,0,0,0-60.439-34.894c-36.241,6.391-57.879,47.9-57.879,111.038H530.3c0-63.138-21.637-104.647-57.879-111.038a54.891,54.891,0,0,0-60.44,34.894c-12.587,34.581,12.544,74.074,67.221,105.643l-3.016,5.224c-54.679-31.568-101.445-33.585-125.1-5.394a54.893,54.893,0,0,0,0,69.789c23.656,28.194,70.422,26.175,125.1-5.394Z" transform="translate(-332.559 -222.395)" fill="#fff"/>
      </g>
    </g>
    <path id="Path_207" data-name="Path 207" d="M715.809,488.613,670,412.081h-.011l-45.824,76.532h3.595v0h-3.6v183.16h91.652V499.027h0Z" transform="translate(63.028 29.614)" fill="#982f5b"/>
    <rect id="Rectangle_129" data-name="Rectangle 129" width="90.946" height="176.602" transform="translate(778.837 518.227)" fill="#56ab95"/>
    <path id="Path_208" data-name="Path 208" d="M664.642,412.081l45.813,76.532h-.011l-45.813-76.532Z" transform="translate(68.382 29.614)" fill="#de7c46"/>
    <path id="Rectangle_6" data-name="Rectangle 6" d="M666.819,565.613h0a18.747,18.747,0,0,1,18.746,18.747v50.153H648.071V584.361a18.748,18.748,0,0,1,18.747-18.747Z" transform="translate(66.192 49.926)" fill="#162a2f"/>
    <circle id="Ellipse_7" data-name="Ellipse 7" cx="17.836" cy="17.836" r="17.836" transform="translate(806.826 556.104)" fill="#162a2f"/>
    <path id="Path_209" data-name="Path 209" d="M525.909,373.1l-66.76-111.5-66.76,111.5V773.894H525.909V403.358h0Z" transform="translate(32.365 9.706)" fill="#e7b443"/>
    <path id="Path_17" data-name="Path 17" d="M817.274,607.21h0a86.976,86.976,0,0,0,80.393,0h0l-40.2-139.267Z" transform="translate(88.577 37.005)" fill="#162a2f"/>
    <path id="Path_18" data-name="Path 18" d="M852.772,659.7h0a103.8,103.8,0,0,0,95.939,0h0l-47.97-166.2Z" transform="translate(93.273 40.386)" fill="#56ab95"/>
    <path id="Path_19" data-name="Path 19" d="M171.054,676.7h0a77.028,77.028,0,0,0,71.192,0h0l-35.6-123.332Z" transform="translate(3.083 48.306)" fill="#982f5b"/>
    <path id="Path_11" data-name="Path 11" d="M724.98,729.891a144.075,144.075,0,0,1,288.15,0Z" transform="translate(76.367 52.6)" fill="#ca3640"/>
    <g id="Group_2" data-name="Group 2" transform="translate(558.274 382.807)">
      <rect id="Rectangle_2" data-name="Rectangle 2" width="132.509" height="400.793" transform="translate(0)" fill="#162a2f"/>
    </g>
    <g id="Group_4" data-name="Group 4" transform="translate(491.514 271.304)">
      <path id="Path_2" data-name="Path 2" d="M451.348,261.6H573.994l76.623,111.5H518.108Z" transform="translate(-451.348 -261.598)" fill="#982f5b"/>
    </g>
    <g id="Group_5" data-name="Group 5" transform="translate(464.203 683.224)">
      <path id="Rectangle_3" data-name="Rectangle 3" d="M454.539,625.389h0A27.311,27.311,0,0,1,481.85,652.7h0v73.065H427.228V652.7a27.311,27.311,0,0,1,27.311-27.311Z" transform="translate(-427.228 -625.389)" fill="#162a2f"/>
    </g>
    <g id="Group_6" data-name="Group 6" transform="translate(464.203 452.192)">
      <circle id="Ellipse_1" data-name="Ellipse 1" cx="27.311" cy="27.311" r="27.311" transform="translate(0)" fill="#162a2f"/>
    </g>
    <g id="Group_7" data-name="Group 7" transform="translate(598.546 453.52)">
      <circle id="Ellipse_2" data-name="Ellipse 2" cx="25.983" cy="25.983" r="25.983" fill="#e7b443"/>
    </g>
    <g id="Group_8" data-name="Group 8" transform="translate(598.546 530.53)">
      <circle id="Ellipse_3" data-name="Ellipse 3" cx="25.983" cy="25.983" r="25.983" fill="#e7b443"/>
    </g>
    <g id="Group_9" data-name="Group 9" transform="translate(598.546 607.541)">
      <circle id="Ellipse_4" data-name="Ellipse 4" cx="25.983" cy="25.983" r="25.983" fill="#e7b443"/>
    </g>
    <g id="Group_10" data-name="Group 10" transform="translate(598.546 684.551)">
      <circle id="Ellipse_5" data-name="Ellipse 5" cx="25.983" cy="25.983" r="25.983" fill="#e7b443"/>
    </g>
    <path id="Path_3" data-name="Path 3" d="M587.34,726.866a108.056,108.056,0,0,1,216.112,0Z" transform="translate(58.157 57.011)" fill="#56ab95"/>
    <path id="Path_210" data-name="Path 210" d="M795.352,631.6l0,0v0h0l0,0h.007l-1.379-2.3-.012-.02h0l-44.422-74.209h-.011L703.7,631.591v0H703.7V737.54H795.35V631.817Z" transform="translate(73.551 48.53)" fill="#de7c46"/>
    <rect id="Rectangle_130" data-name="Rectangle 130" width="90.946" height="105.949" transform="translate(868.903 680.121)" fill="#982f5b"/>
    <path id="Path_211" data-name="Path 211" d="M744.184,555.059,790,631.591h-.011l-45.813-76.532Z" transform="translate(78.906 48.53)" fill="#de7c46"/>
    <path id="Rectangle_6-2" data-name="Rectangle 6" d="M744.333,655.436h0A18.747,18.747,0,0,1,763.361,673.9l.759,50.147h0l-37.489.567h0l-.759-50.147a18.748,18.748,0,0,1,18.462-19.029Z" transform="translate(76.484 61.809)" fill="#982f5b"/>
    <circle id="Ellipse_7-2" data-name="Ellipse 7" cx="17.836" cy="17.836" r="17.836" transform="translate(896.657 717.286)" fill="#de7c46"/>
    <path id="Path_5" data-name="Path 5" d="M717.747,231.623a75.149,75.149,0,0,0-62.681,33.629,51.027,51.027,0,0,0-80.573,41.6h0a51.676,51.676,0,0,0,51.676,51.676H741.3a51.676,51.676,0,0,0,51.676-51.676h0a75.224,75.224,0,0,0-75.224-75.224Z" transform="translate(56.457 5.74)" fill="#4b4b4b" opacity="0.074" style="isolation: isolate"/>
    <path id="Path_7" data-name="Path 7" d="M247.415,362.874c17.3,0,32.541,9.511,41.455,23.952a31.986,31.986,0,0,1,19.543-6.712c18.635,0,33.742,16.27,33.742,36.341h0c0,20.328-15.3,36.806-34.176,36.806H231.841c-18.875,0-34.176-16.479-34.176-36.806h0C197.665,386.862,219.938,362.874,247.415,362.874Z" transform="translate(6.604 23.104)" fill="#4b4b4b" opacity="0.074" style="isolation: isolate"/>
    <path id="Path_6" data-name="Path 6" d="M1002.291,358.188a64.41,64.41,0,0,0-64.411-64.411h0a64.105,64.105,0,0,0-35.017,10.346,84.811,84.811,0,0,0-160.082,13.093,54.193,54.193,0,0,0-71.812,51.22h0A54.164,54.164,0,0,0,725.131,422.6H937.88a64.41,64.41,0,0,0,64.411-64.411Z" transform="translate(69.221 8.573)" fill="#4b4b4b" opacity="0.124" style="isolation: isolate"/>
    <g id="Group_14" data-name="Group 14" transform="translate(332.282 587.072)">
      <circle id="Ellipse_8" data-name="Ellipse 8" cx="3.725" cy="3.725" r="3.725" transform="translate(16.01)" fill="#162a2f"/>
      <path id="Path_12" data-name="Path 12" d="M310.721,575.467a29.087,29.087,0,0,0,22.407,6.6c3.044-.405,6.469-1.726,7.329-4.672a9.358,9.358,0,0,0-.512-5.209l-4.895-16.5c-.975-3.284-2.151-12.293-7.426-9.546-4.163,2.167-6.454,9.655-8.527,13.56Z" transform="translate(-310.721 -539.789)" fill="#162a2f"/>
      <path id="Path_13" data-name="Path 13" d="M317.875,572.1c-.034,5.731-1.925,10.888-1.925,16.584,0,1.349-.409,2.885.906,3.675,1.267.761,1.775.274,1.988-1.044.1-.606-.734-2.6-.733-3.593a17.931,17.931,0,0,1,.361-4.085,29.608,29.608,0,0,1,2.763-7.21Z" transform="translate(-310.037 -536.288)" fill="#162a2f"/>
      <path id="Path_14" data-name="Path 14" d="M325.124,574.022c1.719,5.467,1.5,10.955,3.238,16.378.412,1.284.493,2.871,1.988,3.222,1.439.34,1.774-.282,1.574-1.6-.093-.607-1.5-2.265-1.8-3.2a17.952,17.952,0,0,1-.906-4,29.534,29.534,0,0,1,.427-7.71Z" transform="translate(-308.816 -536.033)" fill="#162a2f"/>
      <path id="Path_15" data-name="Path 15" d="M322.511,556.038c-1.059,3.649-6.326,7.462-5.9,11.512,3.192.769,5.674-6.454,7.987-7.987Z" transform="translate(-309.946 -538.413)" fill="#162a2f"/>
      <path id="Path_16" data-name="Path 16" d="M331.02,550.944c-.555,2.944,5.72,6.07,7.648,7.571.806.627,3.441,2.216,1.806,2.843-1.081.414-2.99-1.027-3.85-1.6-1.261-.848-2.378-1.974-3.686-2.724Z" transform="translate(-308.04 -539.086)" fill="#162a2f"/>
    </g>
    <g id="Group_15" data-name="Group 15" transform="translate(938.903 723.427)">
      <circle id="Ellipse_8-2" data-name="Ellipse 8-2" cx="3.725" cy="3.725" r="3.725" transform="translate(16.01)" fill="#162a2f"/>
      <path id="Path_12-2" data-name="Path 12-2" d="M846.464,695.89a29.088,29.088,0,0,0,22.407,6.6c3.044-.405,6.469-1.726,7.329-4.672a9.358,9.358,0,0,0-.512-5.209l-4.895-16.5c-.975-3.284-2.151-12.293-7.426-9.546-4.163,2.167-6.454,9.655-8.527,13.56Z" transform="translate(-846.464 -660.212)" fill="#162a2f"/>
      <path id="Path_13-2" data-name="Path 13-2" d="M853.618,692.522c-.034,5.731-1.925,10.888-1.925,16.584,0,1.349-.409,2.885.906,3.675,1.267.761,1.775.274,1.988-1.044.1-.606-.734-2.6-.733-3.593a17.993,17.993,0,0,1,.361-4.085,29.6,29.6,0,0,1,2.763-7.211Z" transform="translate(-845.78 -656.711)" fill="#162a2f"/>
      <path id="Path_14-2" data-name="Path 14-2" d="M860.867,694.445c1.719,5.467,1.5,10.955,3.238,16.378.412,1.284.493,2.872,1.988,3.222,1.439.34,1.774-.282,1.574-1.6-.093-.607-1.5-2.265-1.8-3.2a18.022,18.022,0,0,1-.906-4,29.532,29.532,0,0,1,.427-7.71Z" transform="translate(-844.559 -656.456)" fill="#162a2f"/>
      <path id="Path_15-2" data-name="Path 15-2" d="M858.254,676.461c-1.059,3.649-6.326,7.462-5.9,11.512,3.192.769,5.674-6.454,7.987-7.987Z" transform="translate(-845.689 -658.836)" fill="#162a2f"/>
      <path id="Path_16-2" data-name="Path 16-2" d="M866.763,671.367c-.555,2.944,5.72,6.07,7.648,7.571.806.627,3.441,2.216,1.806,2.843-1.081.414-2.99-1.027-3.85-1.6-1.261-.848-2.378-1.974-3.686-2.724Z" transform="translate(-843.783 -659.509)" fill="#162a2f"/>
    </g>
    <g id="Group_16" data-name="Group 16" transform="translate(971.859 724.813)">
      <circle id="Ellipse_8-3" data-name="Ellipse 8-3" cx="3.725" cy="3.725" r="3.725" transform="translate(9.569)" fill="#162a2f"/>
      <path id="Path_12-3" data-name="Path 12-3" d="M908.359,697.114a29.405,29.405,0,0,1-22.549,6.6c-3.057-.405-6.51-1.726-7.376-4.672a9.3,9.3,0,0,1,.515-5.209l4.925-16.5c.982-3.284,2.163-12.293,7.473-9.546,4.189,2.167,6.491,9.655,8.582,13.56Z" transform="translate(-875.212 -661.436)" fill="#162a2f"/>
      <path id="Path_13-3" data-name="Path 13-3" d="M898.279,693.746c.034,5.731,1.925,10.888,1.925,16.584,0,1.349.409,2.885-.906,3.675-1.267.761-1.775.274-1.988-1.044-.1-.606.734-2.6.733-3.593a17.928,17.928,0,0,0-.361-4.085,29.508,29.508,0,0,0-2.763-7.21Z" transform="translate(-873.01 -657.935)" fill="#162a2f"/>
      <path id="Path_14-3" data-name="Path 14-3" d="M891.137,695.669c-1.719,5.467-1.5,10.955-3.238,16.378-.412,1.284-.493,2.871-1.988,3.223-1.439.34-1.774-.282-1.574-1.6.093-.607,1.5-2.265,1.8-3.2a17.946,17.946,0,0,0,.906-4,29.535,29.535,0,0,0-.427-7.71Z" transform="translate(-874.417 -657.68)" fill="#162a2f"/>
      <path id="Path_15-3" data-name="Path 15-3" d="M893.946,677.685c1.059,3.649,6.326,7.462,5.9,11.512-3.192.769-5.674-6.454-7.987-7.987Z" transform="translate(-873.414 -660.06)" fill="#162a2f"/>
      <path id="Path_16-3" data-name="Path 16-3" d="M885.548,672.591c.555,2.944-5.72,6.07-7.648,7.57-.806.627-3.441,2.216-1.806,2.843,1.081.414,2.99-1.027,3.85-1.6,1.261-.848,2.378-1.974,3.686-2.724Z" transform="translate(-875.57 -660.733)" fill="#162a2f"/>
    </g>
    <path id="Path_21" data-name="Path 21" d="M147.985,723.616a81.679,81.679,0,1,1,163.358-.609c0,.2,0,.405,0,.609Z" transform="translate(0.031 59.983)" fill="#56ab95"/>
    <path id="Path_22" data-name="Path 22" d="M157.392,725.647l398.8,277.711,37.956,71.608,40.636-71.608,87.686-24.836,64.466-89.44v34.133L877.066,850.2l144.4-55.544,56.829-52.1,11.248-29.614-941.6.884Z" transform="translate(0.027 69.417)" fill="#e2e2e2"/>
    <path id="Path_23" data-name="Path 23" d="M147.75,713.94,286,749.213l661.051,3.843,142.435-40.094-941.742.977Z" transform="translate(0 69.42)" fill="#bebebe"/>
    <path id="Path_212" data-name="Path 212" d="M877.442,631.6l-.011-.011H847.859l-2.025-3.292-44.992-73.24H770.723l44.308,74.2h0l1.385,2.33H786.485v.011h29.938c0,8.224,7.038,14.892,15.722,14.892s15.721-6.668,15.721-14.892h29.577Z" transform="translate(82.418 48.53)" fill="#ffe09b"/>
    <g id="Group_194" data-name="Group 194" transform="translate(763.076 441.695)">
      <path id="Path_213" data-name="Path 213" d="M797.9,488.624l-.011-.011H768.316l-3.75-6.1L721.3,412.081H691.181l42.05,70.42h0l3.65,6.112H706.942v.011H797.9Z" transform="translate(-691.181 -412.081)" fill="#ffbe9a"/>
      <path id="Path_214" data-name="Path 214" d="M747.262,494.573c8.684,0,15.722-6.667,15.722-14.892H731.541C731.541,487.906,738.579,494.573,747.262,494.573Z" transform="translate(-685.841 -403.138)" fill="#ffbe9a"/>
    </g>
    <path id="Path_215" data-name="Path 215" d="M794.367,488.624l0-.011-2.694-3.92h0l-49.89-72.612h-24l47.013,76.532h0l.007.011h0a14.765,14.765,0,0,0,28.98,4.119h.008l.009-.071a14.966,14.966,0,0,0,.568-4.048Z" transform="translate(75.414 29.614)" fill="#de7c46"/>
    <path id="Path_216" data-name="Path 216" d="M740.384,488.613h.008l-45.7-76.532H664.641l44.721,74.71h-.025l1.116,1.823v.011h0c0,.118.015.232.017.35l.055,1.12h0a14.975,14.975,0,0,0,29.788,0h0l.072-1.466v0h0Z" transform="translate(68.384 29.614)" fill="#de7c46"/>
    <path id="Path_217" data-name="Path 217" d="M819.927,631.591h.007l-1.386-2.322-.006-.008h0l-44.308-74.2H744.183l44.422,74.208L790,631.6a14.969,14.969,0,0,0,29.938,0Z" transform="translate(78.907 48.53)" fill="#e7b443"/>
    <path id="Path_218" data-name="Path 218" d="M873.823,633.207a15.325,15.325,0,0,0,.088-1.6h0v-.011h0l-52.584-76.532h-24l47.013,76.532h0l.007.011v.012a14.761,14.761,0,0,0,.088,1.591l0,.043h0a14.766,14.766,0,0,0,29.375,0h0Z" transform="translate(85.938 48.53)" fill="#e7b443"/>
  </g>
</svg>
