<svg xmlns="http://www.w3.org/2000/svg" width="669.689" height="911.327" viewBox="0 0 669.689 911.327">
  <g id="Group_216" data-name="Group 216" transform="translate(-190.311 -3595)">
    <rect id="Rectangle_4" data-name="Rectangle 4" width="155.779" height="486.696" transform="translate(384.848 3725.091)" fill="#67d6b9"/>
    <rect id="Rectangle_109" data-name="Rectangle 109" width="154.58" height="486.702" transform="translate(540.63 3725.085)" fill="#356e5f"/>
    <path id="Path_152" data-name="Path 152" d="M375.672,543.8H219.9l77.886-130.08h.019Z" transform="translate(164.958 3181.29)" fill="#67d6b9"/>
    <path id="Path_153" data-name="Path 153" d="M422.922,543.8H372.652l-79.907-130.08h40.8Z" transform="translate(272.289 3181.29)" fill="#56ab95"/>
    <path id="Path_154" data-name="Path 154" d="M380.149,543.8H329.264L251.4,413.715h51.078Z" transform="translate(211.366 3181.29)" fill="#56ab95"/>
    <rect id="Rectangle_110" data-name="Rectangle 110" width="0.019" height="151.605" transform="translate(462.745 3595.01) rotate(-30.905)" fill="#de7c46"/>
    <path id="Path_155" data-name="Path 155" d="M298.837,543.815h154.6l-.019-.019H403.148l-79.907-130.08H272.048L349.722,543.8H298.837Z" transform="translate(241.793 3181.29)" fill="#97e3d0"/>
    <path id="Rectangle_6" data-name="Rectangle 6" d="M268.53,491.821h0A31.865,31.865,0,0,1,300.872,523.2l1.289,391.857h0l-63.72.964h0L237.15,524.163a31.865,31.865,0,0,1,31.38-32.342Z" transform="translate(190.37 3296.365)" fill="#356e5f"/>
    <circle id="Ellipse_7" data-name="Ellipse 7" cx="30.316" cy="30.316" r="30.316" transform="translate(587.803 3788.254)" fill="#67d6b9"/>
    <path id="Path_156" data-name="Path 156" d="M333.764,466.315a25.443,25.443,0,0,1-50.885,0" transform="translate(257.752 3258.79)" fill="#56ab95"/>
    <path id="Path_157" data-name="Path 157" d="M375.311,466.315a25.127,25.127,0,1,1-50.252,0" transform="translate(319.899 3258.79)" fill="#56ab95"/>
    <path id="Path_158" data-name="Path 158" d="M356.895,466.315c0,13.977-11.964,25.31-26.72,25.31s-26.723-11.333-26.723-25.31" transform="translate(288.064 3258.79)" fill="#97e3d0"/>
    <rect id="Rectangle_4-2" data-name="Rectangle 4" width="99.253" height="310.093" transform="translate(637.127 3944.918)" fill="#67d6b9"/>
    <rect id="Rectangle_111" data-name="Rectangle 111" width="98.489" height="310.097" transform="translate(736.382 3944.915)" fill="#356e5f"/>
    <path id="Path_159" data-name="Path 159" d="M421.144,604.555H321.9l49.625-82.879h.012Z" transform="translate(315.238 3340.359)" fill="#67d6b9"/>
    <path id="Path_160" data-name="Path 160" d="M451.249,604.555H419.22l-50.912-82.879h26Z" transform="translate(383.622 3340.359)" fill="#56ab95"/>
    <path id="Path_161" data-name="Path 161" d="M424,604.555H391.576l-49.612-82.879h32.544Z" transform="translate(344.806 3340.359)" fill="#56ab95"/>
    <rect id="Rectangle_112" data-name="Rectangle 112" width="0.012" height="96.594" transform="translate(686.758 3862.039) rotate(-30.905)" fill="#de7c46"/>
    <path id="Path_162" data-name="Path 162" d="M372.19,604.568h98.5l-.012-.012H438.65l-50.912-82.879H355.121l49.49,82.879H372.19Z" transform="translate(364.192 3340.359)" fill="#97e3d0"/>
    <path id="Rectangle_6-2" data-name="Rectangle 6" d="M352.879,571.44h0a20.3,20.3,0,0,1,20.606,19.992l.821,249.667h0l-40.6.616h0l-.821-249.667a20.3,20.3,0,0,1,19.992-20.608Z" transform="translate(331.429 3413.678)" fill="#356e5f"/>
    <circle id="Ellipse_7-2" data-name="Ellipse 7" cx="19.315" cy="19.315" r="19.315" transform="translate(766.438 3985.162)" fill="#67d6b9"/>
    <path id="Path_163" data-name="Path 163" d="M394.443,555.19a16.211,16.211,0,0,1-32.421,0" transform="translate(374.361 3389.738)" fill="#56ab95"/>
    <path id="Path_164" data-name="Path 164" d="M420.913,555.19a16.008,16.008,0,1,1-32.016,0" transform="translate(413.958 3389.738)" fill="#56ab95"/>
    <path id="Path_165" data-name="Path 165" d="M409.181,555.19c0,8.907-7.623,16.126-17.027,16.126S375.13,564.1,375.13,555.19" transform="translate(393.674 3389.738)" fill="#97e3d0"/>
    <rect id="Rectangle_4-3" data-name="Rectangle 4" width="99.253" height="310.093" transform="translate(207.591 3944.751)" fill="#67d6b9"/>
    <rect id="Rectangle_113" data-name="Rectangle 113" width="98.489" height="310.097" transform="translate(306.846 3944.748)" fill="#356e5f"/>
    <path id="Path_166" data-name="Path 166" d="M247.482,604.488H148.232l49.625-82.879h.012Z" transform="translate(59.364 3340.26)" fill="#67d6b9"/>
    <path id="Path_167" data-name="Path 167" d="M277.586,604.488H245.557l-50.912-82.879h26Z" transform="translate(127.749 3340.26)" fill="#56ab95"/>
    <path id="Path_168" data-name="Path 168" d="M250.334,604.488H217.913L168.3,521.609h32.544Z" transform="translate(88.933 3340.26)" fill="#56ab95"/>
    <rect id="Rectangle_114" data-name="Rectangle 114" width="0.012" height="96.594" transform="translate(257.222 3861.872) rotate(-30.905)" fill="#de7c46"/>
    <path id="Path_169" data-name="Path 169" d="M198.527,604.5h98.5l-.012-.012H264.987l-50.912-82.879H181.458l49.49,82.879H198.527Z" transform="translate(108.319 3340.26)" fill="#97e3d0"/>
    <path id="Rectangle_6-3" data-name="Rectangle 6" d="M179.218,571.373h0a20.3,20.3,0,0,1,20.606,19.992l.821,249.667h0l-40.6.613h0l-.824-249.667a20.3,20.3,0,0,1,19.995-20.606Z" transform="translate(75.555 3413.579)" fill="#356e5f"/>
    <circle id="Ellipse_7-3" data-name="Ellipse 7" cx="19.315" cy="19.315" r="19.315" transform="translate(336.901 3984.995)" fill="#67d6b9"/>
    <path id="Path_170" data-name="Path 170" d="M220.78,555.122a16.211,16.211,0,0,1-32.421,0" transform="translate(118.486 3389.638)" fill="#56ab95"/>
    <path id="Path_171" data-name="Path 171" d="M247.252,555.122a16.009,16.009,0,1,1-32.018,0" transform="translate(158.084 3389.638)" fill="#56ab95"/>
    <path id="Path_172" data-name="Path 172" d="M235.518,555.122c0,8.907-7.623,16.127-17.027,16.127s-17.024-7.22-17.024-16.127" transform="translate(137.8 3389.638)" fill="#97e3d0"/>
    <path id="Path_173" data-name="Path 173" d="M188.518,1077.073a149.515,149.515,0,0,1,48.775,8.135,234.395,234.395,0,0,1,442.426-36.183,177.169,177.169,0,0,1,96.779-28.6c5.389,0,10.71.282,15.976.752a334.342,334.342,0,0,0,18.459-109.851c0-184.928-149.915-334.843-334.846-334.843S141.244,726.4,141.244,911.331a333.289,333.289,0,0,0,43.89,165.826C186.265,1077.133,187.385,1077.073,188.518,1077.073Z" transform="translate(49.067 3421.119)" fill="#56ab95"/>
    <path id="Path_174" data-name="Path 174" d="M296.477,588.729c-18.9,14.675-28.053,48.894-20.888,68.99,3.876,10.868,17.069,16.366,24.185,24.979,13.168,15.936,19.51,33.6,24.118,53.43,5.377,23.144,6.156,47.887,21.412,67.239,15.676,19.886,37.507,37.833,62.54,43.359,20.012,4.417,27.657-1.4,44.506-10.26,11.073-5.82,24.85-11.066,37.539-10.51,12.2.537,18.244,8.766,29.3,11.427,12.493,3.005,25.582-1.588,35.238-9.156,18.721-14.68,20.106-44.254,8.56-63.964-11.34-19.354-23.4-34.721-42.186-47.553-16.136-11.019-33.712-19.891-49.3-31.677-23.534-17.8-35.191-45.085-57.86-62.718s-50.047-27.487-76.9-36.809c-8.58-2.98-17.826-5.031-26.723-3.213A32.8,32.8,0,0,0,296.477,588.729Z" transform="translate(243.424 3428.663)" fill="#fff"/>
    <path id="Path_175" data-name="Path 175" d="M311.982,622.552c13.332-1.449,25.877,12.916,27.284,24.61,1.989,16.557-10.03,30.846-7.954,47.195,2.417,19.02,16.592,34.553,13.663,55.51-2.9,20.752-20.408,36.932-39.908,43.193-28.733,9.226-65.033-11.108-74.36-40.126-4.373-13.6-5.3-33.6.084-46.834,5.273-12.953,16.777-20.749,21.514-34.1C260.432,649.081,267.236,621.471,311.982,622.552Z" transform="translate(175.54 3488.839)" fill="#fff"/>
    <path id="Path_176" data-name="Path 176" d="M158.76,843.307c3.747,12.763,8.879,25.854,19.134,34.328s26.972,10.428,36.324.967c13.515-13.668,3.1-37.9,11.256-55.31,3.841-8.2,11.383-13.915,17.6-20.5s11.509-15.573,9.134-24.311c-3.69-13.579-22.06-16.569-30.8-27.6-8.521-10.747-6.013-26.169-3.589-39.668s3.532-29.5-6.552-38.8c-10.88-10.035-29.547-5.743-39.681,5.046-16.8,17.895-21.271,49.507-22.879,72.923A265.891,265.891,0,0,0,158.76,843.307Z" transform="translate(59.138 3554.114)" fill="#fff"/>
    <path id="Path_177" data-name="Path 177" d="M354.988,620.959,327.77,673.034l-27.217-52.075a30.714,30.714,0,0,1,5.5-35.941h0a30.712,30.712,0,0,1,43.433,0h0A30.71,30.71,0,0,1,354.988,620.959Z" transform="translate(278.645 3420.434)" fill="#67d6b9"/>
    <circle id="Ellipse_29" data-name="Ellipse 29" cx="26.633" cy="26.633" r="26.633" transform="translate(579.782 4001.036)" fill="#fff"/>
    <path id="Path_178" data-name="Path 178" d="M415.719,676.627,388.5,728.7l-27.217-52.077a30.706,30.706,0,0,1,5.5-35.938h0a30.709,30.709,0,0,1,43.43,0h0A30.71,30.71,0,0,1,415.719,676.627Z" transform="translate(368.125 3502.458)" fill="#67d6b9"/>
    <circle id="Ellipse_30" data-name="Ellipse 30" cx="26.633" cy="26.633" r="26.633" transform="translate(729.993 4138.729)" fill="#fff"/>
    <path id="Path_179" data-name="Path 179" d="M285.4,669.036l-27.217,52.077-27.217-52.077a30.714,30.714,0,0,1,5.5-35.941h0a30.714,30.714,0,0,1,43.43,0h0A30.71,30.71,0,0,1,285.4,669.036Z" transform="translate(176.116 3491.273)" fill="#67d6b9"/>
    <circle id="Ellipse_31" data-name="Ellipse 31" cx="26.633" cy="26.633" r="26.633" transform="translate(407.667 4119.952)" fill="#fff"/>
  </g>
</svg>
