<svg width="236" height="473" viewBox="0 0 236 473" fill="none" xmlns="http://www.w3.org/2000/svg">
<path d="M236.005 472.006C219.398 472.079 203.295 466.302 190.522 455.688C179.248 446.228 165.631 428.477 164.784 397.634C164.313 380.478 167.867 361.699 175.384 341.502C161.65 358.11 147.165 370.578 132.071 378.748C104.935 393.435 82.754 390.518 68.925 385.485C37.118 373.908 17.566 340.041 23.443 306.707C25.999 292.213 34.563 271.545 60.85 255.39C75.472 246.404 93.5119 240.09 114.762 236.503C93.5109 232.914 75.472 226.603 60.85 217.616C34.563 201.461 25.999 180.792 23.443 166.299C17.565 132.965 37.118 99.099 68.925 87.521C82.755 82.487 104.936 79.569 132.071 94.257C147.164 102.427 161.65 114.895 175.384 131.503C167.868 111.303 164.314 92.526 164.784 75.37C165.631 44.527 179.248 26.777 190.522 17.316C216.451 -4.43997 255.557 -4.44097 281.487 17.316C292.761 26.776 306.378 44.527 307.225 75.37C307.696 92.526 304.142 111.304 296.625 131.503C310.359 114.895 324.844 102.427 339.938 94.257C367.072 79.57 389.254 82.487 403.084 87.521C434.891 99.098 454.444 132.964 448.566 166.299C446.01 180.792 437.446 201.461 411.159 217.616C396.537 226.602 378.497 232.916 357.247 236.503C378.498 240.093 396.537 246.403 411.159 255.39C437.446 271.545 446.01 292.214 448.566 306.707C454.444 340.041 434.891 373.907 403.084 385.485C389.253 390.518 367.073 393.436 339.938 378.748C324.845 370.578 310.359 358.111 296.626 341.502C304.142 361.702 307.696 380.478 307.226 397.634C306.379 428.477 292.762 446.228 281.488 455.688C268.715 466.302 252.612 472.079 236.005 472.006V472.006ZM201.395 303.518C164.363 367.66 161.995 422.518 195.067 450.268C218.403 469.85 253.598 469.85 276.934 450.268C310.003 422.519 307.634 367.66 270.606 303.518L276.735 299.98C313.767 364.122 360.094 393.598 400.661 378.835C429.287 368.416 446.884 337.935 441.595 307.935C434.095 265.422 385.406 240.04 311.341 240.04V232.963C385.405 232.963 434.098 207.582 441.595 165.068C446.884 135.068 429.287 104.588 400.661 94.1681C360.092 79.4021 313.768 108.881 276.735 173.022L270.605 169.488C307.637 105.347 310.005 50.488 276.934 22.739C253.597 3.15804 218.403 3.15804 195.066 22.739C161.997 50.487 164.366 105.347 201.395 169.488L195.266 173.026C158.234 108.884 111.905 79.406 71.34 94.171C42.715 104.589 25.117 135.071 30.407 165.071C37.907 207.585 86.596 232.966 160.66 232.966V240.043C86.596 240.043 37.903 265.425 30.407 307.938C25.118 337.938 42.715 368.418 71.34 378.838C111.903 393.601 158.233 364.125 195.266 299.983L201.395 303.518Z" fill="white"/>
<path d="M318.113 450.105C314.121 450.106 310.136 449.758 306.204 449.065C291.71 446.51 271.042 437.945 254.887 411.658C245.901 397.036 239.587 378.996 236 357.746C232.41 378.996 226.1 397.036 217.113 411.658C200.958 437.945 180.289 446.51 165.796 449.065C161.864 449.758 157.879 450.106 153.887 450.105C124.7 450.105 97.215 431.598 87.018 403.583C81.985 389.753 79.067 367.571 93.755 340.437C101.925 325.344 114.393 310.858 131.001 297.124C110.801 304.642 92.033 308.197 74.868 307.724C44.025 306.877 26.274 293.259 16.814 281.986C-4.94304 256.057 -4.94304 216.95 16.814 191.021C26.275 179.747 44.025 166.13 74.868 165.283C92.029 164.81 110.802 168.366 131 175.883C114.392 162.149 101.924 147.663 93.755 132.571C79.068 105.436 81.985 83.255 87.018 69.425C98.596 37.618 132.461 18.065 165.796 23.943C180.29 26.499 200.958 35.063 217.114 61.35C226.1 75.972 232.414 94.012 236.001 115.262C239.59 94.011 245.901 75.972 254.888 61.35C271.043 35.063 291.712 26.499 306.205 23.943C339.54 18.066 373.405 37.619 384.983 69.425C390.017 83.255 392.934 105.436 378.246 132.57C370.076 147.663 357.608 162.149 341 175.883C361.2 168.364 379.972 164.815 397.133 165.283C427.976 166.13 445.727 179.748 455.187 191.021C476.944 216.95 476.944 256.057 455.187 281.986C445.726 293.26 427.976 306.877 397.133 307.724C379.977 308.192 361.199 304.641 341.001 297.124C357.609 310.858 370.077 325.343 378.246 340.437C392.934 367.571 390.017 389.752 384.983 403.582C374.785 431.596 347.293 450.104 318.113 450.105ZM172.523 277.237C108.382 314.269 78.903 360.596 93.668 401.162C104.087 429.788 134.568 447.387 164.568 442.096C207.082 434.596 232.463 385.907 232.463 311.843H239.539C239.539 385.907 264.92 434.599 307.434 442.096C337.429 447.388 367.914 429.788 378.334 401.162C393.099 360.597 363.621 314.269 299.479 277.237L303.018 271.108C367.158 308.14 422.018 310.508 449.768 277.436C469.349 254.1 469.349 218.905 449.768 195.569C422.019 162.5 367.16 164.869 303.018 201.897L299.479 195.768C363.621 158.737 393.099 112.409 378.334 71.843C367.913 43.218 337.44 25.618 307.433 30.91C264.919 38.41 239.538 87.099 239.538 161.164H232.462C232.462 87.1 207.08 38.407 164.567 30.91C134.567 25.621 104.087 43.218 93.667 71.843C78.902 112.409 108.381 158.736 172.522 195.768L168.984 201.897C104.843 164.865 49.984 162.497 22.234 195.569C2.65301 218.905 2.65301 254.1 22.234 277.436C49.984 310.507 104.844 308.141 168.984 271.108L172.523 277.237Z" fill="white"/>
</svg>
