<svg width="98" height="187" viewBox="0 0 98 187" fill="none" xmlns="http://www.w3.org/2000/svg">
<path d="M24.9999 0.29895L0.815918 40.69V185.875H49.179V40.69L24.9999 0.29895Z" fill="white"/>
<path d="M69.428 0.29895H24.9999L49.181 40.69V185.875H97.181V40.69L69.428 0.29895Z" fill="#162A2F"/>
<path d="M24.9999 150.639C27.6237 150.639 30.14 151.681 31.9953 153.537C33.8506 155.392 34.8929 157.908 34.8929 160.532V187H15.1069V160.532C15.1069 157.908 16.1492 155.392 18.0045 153.537C19.8598 151.681 22.3761 150.639 24.9999 150.639V150.639Z" fill="#386C79"/>
<path d="M24.9999 85.61C30.4637 85.61 34.8929 81.1807 34.8929 75.717C34.8929 70.2532 30.4637 65.824 24.9999 65.824C19.5362 65.824 15.1069 70.2532 15.1069 75.717C15.1069 81.1807 19.5362 85.61 24.9999 85.61Z" fill="#386C79"/>
<path d="M73.1829 85.1289C78.381 85.1289 82.5949 80.915 82.5949 75.7169C82.5949 70.5188 78.381 66.3049 73.1829 66.3049C67.9848 66.3049 63.7709 70.5188 63.7709 75.7169C63.7709 80.915 67.9848 85.1289 73.1829 85.1289Z" fill="#386C79"/>
<path d="M73.1829 113.026C78.381 113.026 82.5949 108.812 82.5949 103.614C82.5949 98.4158 78.381 94.2019 73.1829 94.2019C67.9848 94.2019 63.7709 98.4158 63.7709 103.614C63.7709 108.812 67.9848 113.026 73.1829 113.026Z" fill="#386C79"/>
<path d="M73.1829 140.922C78.381 140.922 82.5949 136.708 82.5949 131.51C82.5949 126.312 78.381 122.098 73.1829 122.098C67.9848 122.098 63.7709 126.312 63.7709 131.51C63.7709 136.708 67.9848 140.922 73.1829 140.922Z" fill="#386C79"/>
<path d="M73.1829 168.819C78.381 168.819 82.5949 164.605 82.5949 159.407C82.5949 154.209 78.381 149.995 73.1829 149.995C67.9848 149.995 63.7709 154.209 63.7709 159.407C63.7709 164.605 67.9848 168.819 73.1829 168.819Z" fill="#386C79"/>
</svg>
