<svg width="240" height="481" viewBox="0 0 240 481" fill="none" xmlns="http://www.w3.org/2000/svg">
<g filter="url(#filter0_d_1_61)">
<path d="M0.00498962 472.006C-16.6022 472.079 -32.7049 466.302 -45.478 455.688C-56.752 446.228 -70.369 428.477 -71.216 397.634C-71.687 380.478 -68.133 361.699 -60.616 341.502C-74.35 358.11 -88.835 370.578 -103.929 378.748C-131.065 393.435 -153.246 390.518 -167.075 385.485C-198.882 373.908 -218.434 340.041 -212.557 306.707C-210.001 292.213 -201.437 271.545 -175.15 255.39C-160.528 246.404 -142.488 240.09 -121.238 236.503C-142.489 232.914 -160.528 226.603 -175.15 217.616C-201.437 201.461 -210.001 180.792 -212.557 166.299C-218.435 132.965 -198.882 99.099 -167.075 87.521C-153.245 82.487 -131.064 79.569 -103.929 94.257C-88.836 102.427 -74.35 114.895 -60.616 131.503C-68.132 111.303 -71.686 92.526 -71.216 75.37C-70.369 44.527 -56.752 26.777 -45.478 17.316C-19.549 -4.43997 19.557 -4.44097 45.487 17.316C56.761 26.776 70.378 44.527 71.225 75.37C71.696 92.526 68.142 111.304 60.625 131.503C74.359 114.895 88.844 102.427 103.938 94.257C131.072 79.57 153.254 82.487 167.084 87.521C198.891 99.098 218.444 132.964 212.566 166.299C210.01 180.792 201.446 201.461 175.159 217.616C160.537 226.602 142.497 232.916 121.247 236.503C142.498 240.093 160.537 246.403 175.159 255.39C201.446 271.545 210.01 292.214 212.566 306.707C218.444 340.041 198.891 373.907 167.084 385.485C153.253 390.518 131.073 393.436 103.938 378.748C88.845 370.578 74.359 358.111 60.626 341.502C68.142 361.702 71.696 380.478 71.226 397.634C70.379 428.477 56.762 446.228 45.488 455.688C32.7149 466.302 16.6122 472.079 0.00498962 472.006V472.006ZM-34.6051 303.518C-71.6371 367.66 -74.0051 422.518 -40.9331 450.268C-17.5971 469.85 17.5979 469.85 40.9339 450.268C74.0029 422.519 71.6339 367.66 34.6059 303.518L40.735 299.98C77.767 364.122 124.094 393.598 164.661 378.835C193.287 368.416 210.884 337.935 205.595 307.935C198.095 265.422 149.406 240.04 75.341 240.04V232.963C149.405 232.963 198.098 207.582 205.595 165.068C210.884 135.068 193.287 104.588 164.661 94.1681C124.092 79.4021 77.768 108.881 40.735 173.022L34.605 169.488C71.637 105.347 74.0049 50.488 40.9339 22.739C17.5969 3.15804 -17.597 3.15804 -40.934 22.739C-74.003 50.487 -71.6341 105.347 -34.6051 169.488L-40.734 173.026C-77.766 108.884 -124.095 79.406 -164.66 94.171C-193.285 104.589 -210.883 135.071 -205.593 165.071C-198.093 207.585 -149.404 232.966 -75.34 232.966V240.043C-149.404 240.043 -198.097 265.425 -205.593 307.938C-210.882 337.938 -193.285 368.418 -164.66 378.838C-124.097 393.601 -77.767 364.125 -40.734 299.983L-34.6051 303.518Z" fill="white"/>
<path d="M82.113 450.105C78.1206 450.106 74.1358 449.758 70.204 449.065C55.71 446.51 35.042 437.945 18.887 411.658C9.90096 397.036 3.587 378.996 0 357.746C-3.59 378.996 -9.90002 397.036 -18.887 411.658C-35.042 437.945 -55.711 446.51 -70.204 449.065C-74.1359 449.758 -78.1207 450.106 -82.113 450.105C-111.3 450.105 -138.785 431.598 -148.982 403.583C-154.015 389.753 -156.933 367.571 -142.245 340.437C-134.075 325.344 -121.607 310.858 -104.999 297.124C-125.199 304.642 -143.967 308.197 -161.132 307.724C-191.975 306.877 -209.726 293.259 -219.186 281.986C-240.943 256.057 -240.943 216.95 -219.186 191.021C-209.725 179.747 -191.975 166.13 -161.132 165.283C-143.971 164.81 -125.198 168.366 -105 175.883C-121.608 162.149 -134.076 147.663 -142.245 132.571C-156.932 105.436 -154.015 83.255 -148.982 69.425C-137.404 37.618 -103.539 18.065 -70.204 23.943C-55.71 26.499 -35.042 35.063 -18.886 61.35C-9.90005 75.972 -3.58602 94.012 0.000976562 115.262C3.58998 94.011 9.901 75.972 18.888 61.35C35.043 35.063 55.712 26.499 70.205 23.943C103.54 18.066 137.405 37.619 148.983 69.425C154.017 83.255 156.934 105.436 142.246 132.57C134.076 147.663 121.608 162.149 105 175.883C125.2 168.364 143.972 164.815 161.133 165.283C191.976 166.13 209.727 179.748 219.187 191.021C240.944 216.95 240.944 256.057 219.187 281.986C209.726 293.26 191.976 306.877 161.133 307.724C143.977 308.192 125.199 304.641 105.001 297.124C121.609 310.858 134.077 325.343 142.246 340.437C156.934 367.571 154.017 389.752 148.983 403.582C138.785 431.596 111.293 450.104 82.113 450.105ZM-63.477 277.237C-127.618 314.269 -157.097 360.596 -142.332 401.162C-131.913 429.788 -101.432 447.387 -71.432 442.096C-28.918 434.596 -3.53705 385.907 -3.53705 311.843H3.539C3.539 385.907 28.92 434.599 71.434 442.096C101.429 447.388 131.914 429.788 142.334 401.162C157.099 360.597 127.621 314.269 63.479 277.237L67.018 271.108C131.158 308.14 186.018 310.508 213.768 277.436C233.349 254.1 233.349 218.905 213.768 195.569C186.019 162.5 131.16 164.869 67.018 201.897L63.479 195.768C127.621 158.737 157.099 112.409 142.334 71.843C131.913 43.218 101.44 25.618 71.433 30.91C28.919 38.41 3.53796 87.099 3.53796 161.164H-3.53802C-3.53802 87.1 -28.92 38.407 -71.433 30.91C-101.433 25.621 -131.913 43.218 -142.333 71.843C-157.098 112.409 -127.619 158.736 -63.478 195.768L-67.016 201.897C-131.157 164.865 -186.016 162.497 -213.766 195.569C-233.347 218.905 -233.347 254.1 -213.766 277.436C-186.016 310.507 -131.156 308.141 -67.016 271.108L-63.477 277.237Z" fill="white"/>
</g>
<defs>
<filter id="filter0_d_1_61" x="-239.504" y="0.998657" width="479.008" height="479.008" filterUnits="userSpaceOnUse" color-interpolation-filters="sRGB">
<feFlood flood-opacity="0" result="BackgroundImageFix"/>
<feColorMatrix in="SourceAlpha" type="matrix" values="0 0 0 0 0 0 0 0 0 0 0 0 0 0 0 0 0 0 127 0" result="hardAlpha"/>
<feOffset dy="4"/>
<feGaussianBlur stdDeviation="2"/>
<feComposite in2="hardAlpha" operator="out"/>
<feColorMatrix type="matrix" values="0 0 0 0 0 0 0 0 0 0 0 0 0 0 0 0 0 0 0.25 0"/>
<feBlend mode="normal" in2="BackgroundImageFix" result="effect1_dropShadow_1_61"/>
<feBlend mode="normal" in="SourceGraphic" in2="effect1_dropShadow_1_61" result="shape"/>
</filter>
</defs>
</svg>
