<svg width="536" height="301" viewBox="0 0 536 301" fill="none" xmlns="http://www.w3.org/2000/svg">
<path d="M535.002 0H0.00195312V301H535.002V0Z" fill="#DE7C46"/>
<path d="M237.502 57.1504L213.318 97.5414V242.726H261.681V97.5414L237.502 57.1504Z" fill="white"/>
<path d="M281.93 57.1504H237.502L261.683 97.5414V242.726H309.683V97.5414L281.93 57.1504Z" fill="#162A2F"/>
<path d="M237.502 207.49C240.126 207.49 242.642 208.533 244.497 210.388C246.353 212.243 247.395 214.759 247.395 217.383V243.851H227.609V217.383C227.609 214.759 228.651 212.243 230.507 210.388C232.362 208.533 234.878 207.49 237.502 207.49Z" fill="#DE7C46"/>
<path d="M237.502 142.461C242.966 142.461 247.395 138.032 247.395 132.568C247.395 127.105 242.966 122.675 237.502 122.675C232.038 122.675 227.609 127.105 227.609 132.568C227.609 138.032 232.038 142.461 237.502 142.461Z" fill="#DE7C46"/>
<path d="M285.685 141.98C290.883 141.98 295.097 137.766 295.097 132.568C295.097 127.37 290.883 123.156 285.685 123.156C280.487 123.156 276.273 127.37 276.273 132.568C276.273 137.766 280.487 141.98 285.685 141.98Z" fill="#DE7C46"/>
<path d="M285.685 169.877C290.883 169.877 295.097 165.663 295.097 160.465C295.097 155.267 290.883 151.053 285.685 151.053C280.487 151.053 276.273 155.267 276.273 160.465C276.273 165.663 280.487 169.877 285.685 169.877Z" fill="#DE7C46"/>
<path d="M285.685 197.773C290.883 197.773 295.097 193.559 295.097 188.361C295.097 183.163 290.883 178.949 285.685 178.949C280.487 178.949 276.273 183.163 276.273 188.361C276.273 193.559 280.487 197.773 285.685 197.773Z" fill="#DE7C46"/>
<path d="M285.685 225.67C290.883 225.67 295.097 221.456 295.097 216.258C295.097 211.06 290.883 206.846 285.685 206.846C280.487 206.846 276.273 211.06 276.273 216.258C276.273 221.456 280.487 225.67 285.685 225.67Z" fill="#DE7C46"/>
</svg>
