<svg id="Group_202" data-name="Group 202" xmlns="http://www.w3.org/2000/svg" width="230.91" height="230.91" viewBox="0 0 230.91 230.91">
  <g id="Group_45" data-name="Group 45" transform="translate(10.737)">
    <path id="Path_36" data-name="Path 36" d="M667.511,501.3a34.651,34.651,0,0,1-22.3-8c-5.527-4.638-12.2-13.34-12.618-28.461-.231-8.411,1.511-17.617,5.2-27.519-6.733,8.142-13.834,14.254-21.234,18.26-13.3,7.2-24.178,5.77-30.957,3.3a35.075,35.075,0,0,1-22.3-38.621c1.253-7.105,5.451-17.238,18.339-25.158,7.168-4.405,16.012-7.5,26.43-9.259-10.418-1.76-19.262-4.854-26.43-9.259-12.887-7.92-17.086-18.053-18.339-25.158a35.074,35.074,0,0,1,22.3-38.621c6.78-2.468,17.654-3.9,30.957,3.3,7.4,4.005,14.5,10.118,21.234,18.26-3.685-9.9-5.427-19.108-5.2-27.519.415-15.121,7.091-23.823,12.618-28.461a35.076,35.076,0,0,1,44.6,0c5.527,4.638,12.2,13.34,12.618,28.461.231,8.41-1.512,17.617-5.2,27.519,6.733-8.142,13.834-14.255,21.234-18.26,13.3-7.2,24.177-5.77,30.957-3.3a35.075,35.075,0,0,1,22.3,38.621c-1.253,7.105-5.452,17.238-18.339,25.158-7.169,4.406-16.012,7.5-26.43,9.259,10.418,1.76,19.262,4.854,26.43,9.259,12.887,7.92,17.086,18.053,18.339,25.158a35.075,35.075,0,0,1-22.3,38.621c-6.781,2.467-17.654,3.9-30.957-3.3-7.4-4.005-14.5-10.117-21.234-18.26,3.685,9.9,5.427,19.108,5.2,27.519-.415,15.121-7.091,23.823-12.618,28.461A34.652,34.652,0,0,1,667.511,501.3Zm-16.965-82.6c-18.155,31.445-19.315,58.34-3.1,71.944a31.566,31.566,0,0,0,40.135,0c16.212-13.6,15.053-40.5-3.1-71.944l3-1.735c18.155,31.446,40.866,45.9,60.754,38.659A31.567,31.567,0,0,0,768.3,420.868c-3.675-20.842-27.547-33.285-63.857-33.285v-3.469c36.31,0,60.181-12.443,63.857-33.285a31.567,31.567,0,0,0-20.068-34.758c-19.889-7.239-42.6,7.213-60.754,38.658l-3-1.734c18.155-31.445,19.315-58.34,3.1-71.944a31.567,31.567,0,0,0-40.135,0c-16.212,13.6-15.052,40.5,3.1,71.944l-3,1.734c-18.155-31.445-40.866-45.9-60.754-38.658a31.566,31.566,0,0,0-20.068,34.758c3.675,20.842,27.547,33.285,63.857,33.285v3.469c-36.31,0-60.182,12.443-63.857,33.285a31.567,31.567,0,0,0,20.068,34.758c19.886,7.237,42.6-7.213,60.754-38.659Z" transform="translate(-562.793 -270.394)" fill="#56ab95"/>
  </g>
  <g id="Group_46" data-name="Group 46" transform="translate(0 10.736)">
    <path id="Path_37" data-name="Path 37" d="M671.213,527.119a33.578,33.578,0,0,1-5.838-.51c-7.106-1.253-17.238-5.451-25.158-18.339-4.406-7.168-7.5-16.013-9.259-26.43-1.76,10.418-4.854,19.262-9.259,26.43-7.92,12.887-18.053,17.086-25.158,18.339a33.615,33.615,0,0,1-5.839.51,35.151,35.151,0,0,1-32.782-22.807c-2.468-6.78-3.9-17.655,3.3-30.957,4.005-7.4,10.118-14.5,18.26-21.234-9.9,3.685-19.1,5.429-27.519,5.2-15.121-.415-23.823-7.091-28.461-12.618a35.075,35.075,0,0,1,0-44.6c4.638-5.527,13.34-12.2,28.461-12.618,8.413-.232,17.617,1.511,27.519,5.2-8.142-6.733-14.254-13.835-18.26-21.234-7.2-13.3-5.77-24.177-3.3-30.957a35.074,35.074,0,0,1,38.62-22.3c7.106,1.253,17.238,5.451,25.158,18.338,4.405,7.168,7.5,16.012,9.259,26.43,1.76-10.418,4.854-19.262,9.259-26.43,7.92-12.887,18.053-17.086,25.158-18.338A35.075,35.075,0,0,1,704,340.49c2.468,6.78,3.9,17.655-3.3,30.957-4.005,7.4-10.118,14.5-18.26,21.234,9.9-3.686,19.106-5.426,27.519-5.2,15.121.415,23.823,7.091,28.461,12.618a35.075,35.075,0,0,1,0,44.6c-4.638,5.527-13.34,12.2-28.461,12.618-8.411.23-17.617-1.511-27.519-5.2,8.142,6.733,14.254,13.834,18.26,21.234,7.2,13.3,5.771,24.177,3.3,30.957A35.156,35.156,0,0,1,671.213,527.119Zm-71.375-84.748c-31.445,18.155-45.9,40.866-38.659,60.754a31.567,31.567,0,0,0,34.758,20.068c20.842-3.675,33.285-27.547,33.285-63.856h3.469c0,36.31,12.443,60.181,33.285,63.856a31.567,31.567,0,0,0,34.758-20.068c7.238-19.887-7.213-42.6-38.659-60.754l1.735-3c31.445,18.155,58.339,19.314,71.944,3.1a31.567,31.567,0,0,0,0-40.135c-13.6-16.212-40.5-15.052-71.944,3.1l-1.735-3c31.445-18.155,45.9-40.867,38.659-60.754a31.565,31.565,0,0,0-34.758-20.068c-20.842,3.675-33.285,27.547-33.285,63.856h-3.469c0-36.31-12.443-60.181-33.285-63.856a31.567,31.567,0,0,0-34.758,20.068c-7.239,19.888,7.214,42.6,38.659,60.754l-1.735,3c-31.445-18.155-58.34-19.315-71.944-3.1a31.567,31.567,0,0,0,0,40.135c13.6,16.213,40.5,15.053,71.944-3.1Z" transform="translate(-515.503 -317.683)" fill="#56ab95"/>
  </g>
</svg>
