<svg xmlns="http://www.w3.org/2000/svg" width="410.192" height="42.441" viewBox="0 0 410.192 42.441">
  <g id="Group_25" data-name="Group 25" transform="translate(-690.331 -1757.19)">
    <path id="Path_29" data-name="Path 29" d="M745.673,1799.39v-28.662l-13.6,28.662h-12.4l-13.686-28.662v28.662H690.331v-40.964h23.436l12.574,25.463,12.061-25.463h24.976v40.964Z" transform="translate(0 -0.497)" fill="#982f5b"/>
    <path id="Path_30" data-name="Path 30" d="M822.773,1799.39v-40.964h18.3v40.964Z" transform="translate(-53.243 -0.497)" fill="#982f5b"/>
    <path id="Path_31" data-name="Path 31" d="M902.166,1780.629a16.839,16.839,0,0,1,1.71-.061c8.041,0,10.778,3.321,12.745,8.734,1.71,4.614,2.738,7.258,6.416,10.088H902.508c-2.394-1.845-3.507-4.06-4.7-6.888-.941-2.214-1.967-4.676-2.651-6.336s-1.883-2.4-4.535-2.4h-8.639v15.623h-18.3v-40.964H897.12c15.994,0,23.265,4.551,23.265,11.133C920.385,1775.71,913.285,1779.276,902.166,1780.629Zm-8.3-12.732h-11.89v9.042h11.377c5.731,0,8.724-1.845,8.724-4.613C902.08,1769.743,899.685,1767.9,893.869,1767.9Z" transform="translate(-69.686 -0.497)" fill="#982f5b"/>
    <path id="Path_32" data-name="Path 32" d="M1026.2,1799.39h-19.931l-3.165-6.7H980.348l-3.165,6.7H960.932l21.812-40.964H1004.3Zm-42.255-14.331H999.68l-7.87-16.668Z" transform="translate(-108.784 -0.497)" fill="#982f5b"/>
    <path id="Path_33" data-name="Path 33" d="M1100.121,1799.39h-27.2v-40.964h27.2c18.817,0,29.766,8.734,29.766,20.481S1118.938,1799.39,1100.121,1799.39Zm-2.223-31.8h-6.673v22.635h6.673c9.152,0,13.428-4.859,13.428-11.317S1107.05,1767.59,1097.9,1767.59Z" transform="translate(-153.805 -0.497)" fill="#982f5b"/>
    <path id="Path_34" data-name="Path 34" d="M1199.165,1799.63c-20.358,0-31.135-9.9-31.135-21.22s10.777-21.22,31.135-21.22c20.442,0,31.22,9.9,31.22,21.22S1219.607,1799.63,1199.165,1799.63Zm0-32.846c-8.383,0-12.319,5.353-12.319,11.625s3.935,11.625,12.319,11.625c8.468,0,12.4-5.351,12.4-11.625S1207.632,1766.785,1199.165,1766.785Z" transform="translate(-192.04)" fill="#982f5b"/>
    <path id="Path_35" data-name="Path 35" d="M1315.5,1780.629a16.841,16.841,0,0,1,1.71-.061c8.041,0,10.778,3.321,12.745,8.734,1.71,4.614,2.738,7.258,6.416,10.088h-20.529c-2.395-1.845-3.507-4.06-4.7-6.888-.941-2.214-1.967-4.676-2.652-6.336s-1.883-2.4-4.534-2.4h-8.639v15.623h-18.3v-40.964h33.445c15.994,0,23.265,4.551,23.265,11.133C1333.724,1775.71,1326.624,1779.276,1315.5,1780.629Zm-8.3-12.732h-11.89v9.042h11.377c5.73,0,8.724-1.845,8.724-4.613C1315.419,1769.743,1313.024,1767.9,1307.208,1767.9Z" transform="translate(-235.853 -0.497)" fill="#982f5b"/>
  </g>
</svg>
