<svg xmlns="http://www.w3.org/2000/svg" width="235.116" height="24.326" viewBox="0 0 235.116 24.326">
  <g id="Group_44" data-name="Group 44" transform="translate(-1369.808 -51.5)">
    <g id="Group_25" data-name="Group 25" transform="translate(1369.808 51.5)">
      <path id="Path_29" data-name="Path 29" d="M722.052,1781.906v-16.428l-7.8,16.428h-7.109l-7.845-16.428v16.428h-8.972v-23.48h13.433l7.207,14.595,6.913-14.595H732.2v23.48Z" transform="translate(-690.331 -1758.002)" fill="#fff"/>
      <path id="Path_30" data-name="Path 30" d="M822.773,1781.906v-23.48h10.492v23.48Z" transform="translate(-777.377 -1758.002)" fill="#fff"/>
      <path id="Path_31" data-name="Path 31" d="M885.737,1771.153a9.674,9.674,0,0,1,.98-.035c4.609,0,6.177,1.9,7.305,5.006.98,2.644,1.569,4.16,3.677,5.782H885.933a8.78,8.78,0,0,1-2.7-3.948c-.539-1.269-1.128-2.68-1.52-3.631s-1.079-1.375-2.6-1.375h-4.952v8.955H863.675v-23.48h19.17c9.168,0,13.335,2.608,13.335,6.381C896.181,1768.333,892.111,1770.377,885.737,1771.153Zm-4.756-7.3h-6.815v5.182h6.521c3.285,0,5-1.058,5-2.644C885.688,1764.913,884.316,1763.855,880.982,1763.855Z" transform="translate(-804.26 -1758.002)" fill="#fff"/>
      <path id="Path_32" data-name="Path 32" d="M998.34,1781.906H986.916l-1.814-3.843H972.061l-1.814,3.843h-9.315l12.5-23.48h12.355Zm-24.22-8.214h9.021l-4.511-9.554Z" transform="translate(-868.181 -1758.002)" fill="#fff"/>
      <path id="Path_33" data-name="Path 33" d="M1088.512,1781.906h-15.591v-23.48h15.591c10.786,0,17.061,5.006,17.061,11.74S1099.3,1781.906,1088.512,1781.906Zm-1.274-18.227h-3.825v12.974h3.825c5.246,0,7.7-2.785,7.7-6.487S1092.483,1763.678,1087.237,1763.678Z" transform="translate(-941.785 -1758.002)" fill="#fff"/>
      <path id="Path_34" data-name="Path 34" d="M1185.875,1781.516c-11.669,0-17.846-5.677-17.846-12.163s6.177-12.163,17.846-12.163c11.717,0,17.895,5.676,17.895,12.163S1197.593,1781.516,1185.875,1781.516Zm0-18.827c-4.805,0-7.061,3.068-7.061,6.664s2.256,6.663,7.061,6.663c4.853,0,7.108-3.067,7.108-6.663S1190.729,1762.689,1185.875,1762.689Z" transform="translate(-1004.294 -1757.19)" fill="#fff"/>
      <path id="Path_35" data-name="Path 35" d="M1299.076,1771.153a9.672,9.672,0,0,1,.98-.035c4.609,0,6.178,1.9,7.305,5.006.98,2.644,1.57,4.16,3.677,5.782h-11.767a8.778,8.778,0,0,1-2.7-3.948c-.539-1.269-1.128-2.68-1.52-3.631s-1.079-1.375-2.6-1.375h-4.952v8.955h-10.492v-23.48h19.17c9.168,0,13.335,2.608,13.335,6.381C1309.52,1768.333,1305.45,1770.377,1299.076,1771.153Zm-4.756-7.3h-6.815v5.182h6.521c3.285,0,5-1.058,5-2.644C1299.027,1764.913,1297.655,1763.855,1294.321,1763.855Z" transform="translate(-1075.923 -1758.002)" fill="#fff"/>
    </g>
  </g>
</svg>
