<svg xmlns="http://www.w3.org/2000/svg" xmlns:xlink="http://www.w3.org/1999/xlink" width="427.652" height="223.651" viewBox="0 0 427.652 223.651">
  <defs>
    <clipPath id="clip-path">
      <rect x="14" width="427.652" height="223.651" fill="none"/>
    </clipPath>
  </defs>
  <g id="Scroll_Group_1" data-name="Scroll Group 1" transform="translate(-14)" clip-path="url(#clip-path)" style="isolation: isolate">
    <g id="Group_191" data-name="Group 191" transform="translate(-1113.213 -206.628)">
      <g id="Group_27" data-name="Group 27" transform="translate(1133.982 206.628)">
        <path id="Path_36" data-name="Path 36" d="M765.35,717.045a67.027,67.027,0,0,1-43.131-15.474c-10.691-8.971-23.6-25.8-24.407-55.052-.447-16.269,2.924-34.077,10.051-53.23-13.024,15.749-26.76,27.572-41.073,35.32-25.732,13.927-46.767,11.161-59.88,6.388-30.162-10.978-48.7-43.094-43.13-74.7,2.423-13.744,10.545-33.344,35.472-48.663,13.866-8.522,30.973-14.506,51.125-17.91-20.152-3.4-37.258-9.389-51.125-17.91-24.927-15.319-33.049-34.919-35.472-48.663-5.574-31.611,12.968-63.726,43.13-74.7,13.115-4.774,34.148-7.541,59.88,6.388,14.313,7.747,28.049,19.571,41.073,35.32-7.128-19.154-10.5-36.962-10.051-53.23.8-29.248,13.716-46.08,24.407-55.052,24.588-20.631,61.672-20.632,86.261,0,10.691,8.971,23.6,25.8,24.407,55.052.447,16.268-2.924,34.076-10.051,53.23,13.024-15.749,26.76-27.573,41.073-35.32,25.731-13.928,46.766-11.162,59.881-6.388,30.162,10.978,48.7,43.094,43.13,74.7-2.424,13.744-10.545,33.344-35.472,48.663-13.866,8.522-30.973,14.506-51.125,17.91,20.152,3.4,37.258,9.389,51.125,17.91,24.927,15.32,33.049,34.919,35.472,48.663,5.574,31.61-12.968,63.726-43.13,74.7-13.116,4.772-34.149,7.54-59.881-6.388-14.313-7.747-28.049-19.57-41.073-35.32,7.128,19.153,10.5,36.961,10.051,53.23-.8,29.248-13.716,46.081-24.407,55.052A67.026,67.026,0,0,1,765.35,717.045ZM732.534,557.269c-35.117,60.825-37.36,112.847-6,139.161,22.129,18.569,55.5,18.569,77.634,0,31.359-26.314,29.116-78.337-6-139.161l5.812-3.355c35.117,60.825,79.048,88.777,117.517,74.777,27.145-9.88,43.833-38.784,38.817-67.233-7.109-40.315-53.284-64.384-123.518-64.384v-6.711c70.234,0,116.409-24.068,123.518-64.384,5.016-28.449-11.672-57.353-38.817-67.232-38.471-14-82.4,13.953-117.517,74.777l-5.812-3.355c35.117-60.824,37.36-112.847,6-139.161-22.13-18.569-55.5-18.569-77.634,0-31.359,26.314-29.116,78.337,6,139.161l-5.812,3.355C691.605,372.7,647.675,344.746,609.2,358.747c-27.145,9.88-43.833,38.783-38.817,67.232,7.109,40.315,53.283,64.384,123.518,64.384v6.711c-70.234,0-116.409,24.069-123.518,64.384-5.016,28.449,11.671,57.353,38.817,67.233,38.466,14,82.4-13.953,117.517-74.777Z" transform="translate(-562.793 -270.394)" fill="#fff"/>
      </g>
      <g id="Group_28" data-name="Group 28" transform="translate(1113.213 227.397)">
        <path id="Path_37" data-name="Path 37" d="M816.7,722.8a64.958,64.958,0,0,1-11.293-.986c-13.745-2.423-33.344-10.545-48.663-35.472-8.522-13.866-14.506-30.973-17.91-51.124-3.4,20.151-9.389,37.259-17.91,51.124C705.6,711.264,686,719.386,672.255,721.809a65.027,65.027,0,0,1-11.293.986c-27.678,0-53.742-17.55-63.411-44.116-4.773-13.115-7.539-34.149,6.388-59.881,7.747-14.312,19.571-28.049,35.32-41.073-19.156,7.129-36.953,10.5-53.23,10.052-29.248-.8-46.081-13.717-55.052-24.407-20.632-24.588-20.632-61.673,0-86.261,8.971-10.691,25.8-23.6,55.052-24.407,16.274-.448,34.076,2.923,53.23,10.051-15.749-13.024-27.572-26.761-35.319-41.072-13.928-25.732-11.162-46.766-6.388-59.881,10.979-30.162,43.094-48.7,74.7-43.13,13.744,2.423,33.344,10.545,48.664,35.472,8.521,13.866,14.506,30.973,17.91,51.125,3.4-20.152,9.389-37.258,17.91-51.125,15.32-24.927,34.919-33.049,48.663-35.472,31.611-5.573,63.726,12.968,74.7,43.13,4.773,13.115,7.54,34.149-6.388,59.88-7.747,14.312-19.571,28.05-35.32,41.073,19.156-7.13,36.956-10.5,53.23-10.052,29.248.8,46.081,13.717,55.052,24.407,20.632,24.588,20.632,61.673,0,86.261-8.971,10.691-25.8,23.6-55.052,24.407-16.269.444-34.076-2.923-53.229-10.051,15.749,13.024,27.572,26.76,35.32,41.073,13.928,25.731,11.162,46.765,6.388,59.88C870.437,705.244,844.37,722.795,816.7,722.8ZM678.634,558.867c-60.824,35.117-88.779,79.048-74.777,117.517,9.88,27.146,38.786,43.835,67.233,38.817,40.316-7.109,64.384-53.284,64.384-123.518h6.71c0,70.234,24.069,116.409,64.384,123.518,28.443,5.018,57.352-11.672,67.232-38.817,14-38.468-13.953-82.4-74.778-117.517l3.356-5.812c60.824,35.117,112.846,37.36,139.161,6,18.568-22.129,18.568-55.5,0-77.634-26.314-31.359-78.337-29.116-139.161,6l-3.356-5.812c60.825-35.117,88.779-79.048,74.778-117.516-9.88-27.145-38.777-43.832-67.232-38.817-40.315,7.109-64.384,53.284-64.384,123.518h-6.71c0-70.234-24.069-116.409-64.384-123.518-28.449-5.015-57.353,11.671-67.233,38.817-14,38.468,13.953,82.4,74.777,117.516l-3.355,5.812c-60.825-35.117-112.847-37.361-139.161-6-18.568,22.129-18.568,55.5,0,77.634,26.315,31.361,78.338,29.117,139.161-6Z" transform="translate(-515.502 -317.683)" fill="#fff"/>
      </g>
    </g>
  </g>
</svg>
