<svg xmlns="http://www.w3.org/2000/svg" xmlns:xlink="http://www.w3.org/1999/xlink" width="416.512" height="817.193" viewBox="0 0 416.512 817.193">
  <defs>
    <clipPath id="clip-path">
      <rect x="432" width="416.512" height="817.193" fill="none"/>
    </clipPath>
  </defs>
  <g id="Scroll_Group_3" data-name="Scroll Group 3" transform="translate(-432)" clip-path="url(#clip-path)" style="isolation: isolate">
    <g id="Group_203" data-name="Group 203" transform="translate(0.831 0.5)" opacity="0.244">
      <path id="Path_20" data-name="Path 20" d="M193.194,689.095h0a103.2,103.2,0,0,0,95.38,0h0L240.883,523.86Z" transform="translate(-146.919 -226.292)" fill="#982f5b" stroke="#707070" stroke-width="1"/>
      <path id="Path_4" data-name="Path 4" d="M208.676,716.6a129.562,129.562,0,0,1,259.124,0Z" transform="translate(-146.637 -225.14)" fill="#982f5b" stroke="#707070" stroke-width="1"/>
      <path id="Path_207" data-name="Path 207" d="M706.577,480.9l-41.2-68.823h-.01L624.161,480.9h3.232v0h-3.237v164.71h82.42V490.269h0Z" transform="translate(-139.058 -228.331)" fill="#982f5b" stroke="#707070" stroke-width="1"/>
      <rect id="Rectangle_129" data-name="Rectangle 129" width="81.785" height="158.813" transform="translate(567.519 252.572)" fill="#982f5b" stroke="#707070" stroke-width="1"/>
      <path id="Path_208" data-name="Path 208" d="M664.641,412.081l41.2,68.823h-.01l-41.2-68.823Z" transform="translate(-138.32 -228.332)" fill="#982f5b" stroke="#707070" stroke-width="1"/>
      <path id="Rectangle_6" data-name="Rectangle 6" d="M664.93,565.613h0a16.858,16.858,0,0,1,16.858,16.859v45.1H648.071v-45.1a16.859,16.859,0,0,1,16.859-16.859Z" transform="translate(-138.622 -225.531)" fill="#982f5b" stroke="#707070" stroke-width="1"/>
      <ellipse id="Ellipse_7" data-name="Ellipse 7" cx="16.039" cy="16.039" rx="16.039" ry="16.039" transform="translate(592.688 286.633)" fill="#982f5b" stroke="#707070" stroke-width="1"/>
      <path id="Path_209" data-name="Path 209" d="M512.459,361.869,452.424,261.6,392.388,361.869v360.42H512.459V389.078h0Z" transform="translate(-143.286 -231.076)" fill="#982f5b" stroke="#707070" stroke-width="1"/>
      <path id="Path_17" data-name="Path 17" d="M817.274,593.181h0a78.215,78.215,0,0,0,72.3,0h0L853.422,467.943Z" transform="translate(-135.536 -227.313)" fill="#982f5b" stroke="#707070" stroke-width="1"/>
      <path id="Path_18" data-name="Path 18" d="M852.772,642.962h0a93.344,93.344,0,0,0,86.275,0h0L895.909,493.5Z" transform="translate(-134.888 -226.846)" fill="#982f5b" stroke="#707070" stroke-width="1"/>
      <path id="Path_19" data-name="Path 19" d="M171.054,664.278h0a69.269,69.269,0,0,0,64.021,0h0l-32.01-110.909Z" transform="translate(-147.323 -225.754)" fill="#982f5b" stroke="#707070" stroke-width="1"/>
      <path id="Path_11" data-name="Path 11" d="M724.98,715.379a129.562,129.562,0,0,1,259.124,0Z" transform="translate(-137.219 -225.162)" fill="#982f5b" stroke="#707070" stroke-width="1"/>
      <g id="Group_2" data-name="Group 2" transform="translate(369.173 130.793)">
        <rect id="Rectangle_2" data-name="Rectangle 2" width="119.162" height="360.42" transform="translate(0)" fill="#982f5b" stroke="#707070" stroke-width="1"/>
      </g>
      <g id="Group_4" data-name="Group 4" transform="translate(309.138 30.522)">
        <path id="Path_2" data-name="Path 2" d="M451.348,261.6H561.64l68.9,100.271H511.384Z" transform="translate(-451.348 -261.598)" fill="#982f5b" stroke="#707070" stroke-width="1"/>
      </g>
      <g id="Group_5" data-name="Group 5" transform="translate(284.578 400.948)">
        <path id="Rectangle_3" data-name="Rectangle 3" d="M451.788,625.389h0a24.56,24.56,0,0,1,24.56,24.56h0v65.705h-49.12V649.949a24.56,24.56,0,0,1,24.56-24.56Z" transform="translate(-427.228 -625.389)" fill="#982f5b" stroke="#707070" stroke-width="1"/>
      </g>
      <g id="Group_6" data-name="Group 6" transform="translate(284.578 193.189)">
        <ellipse id="Ellipse_1" data-name="Ellipse 1" cx="24.56" cy="24.56" rx="24.56" ry="24.56" transform="translate(0)" fill="#982f5b" stroke="#707070" stroke-width="1"/>
      </g>
      <g id="Group_7" data-name="Group 7" transform="translate(405.388 194.383)">
        <ellipse id="Ellipse_2" data-name="Ellipse 2" cx="23.366" cy="23.366" rx="23.366" ry="23.366" transform="translate(0)" fill="#982f5b" stroke="#707070" stroke-width="1"/>
      </g>
      <g id="Group_8" data-name="Group 8" transform="translate(405.388 263.635)">
        <ellipse id="Ellipse_3" data-name="Ellipse 3" cx="23.366" cy="23.366" rx="23.366" ry="23.366" transform="translate(0)" fill="#982f5b" stroke="#707070" stroke-width="1"/>
      </g>
      <g id="Group_9" data-name="Group 9" transform="translate(405.388 332.889)">
        <ellipse id="Ellipse_4" data-name="Ellipse 4" cx="23.366" cy="23.366" rx="23.366" ry="23.366" transform="translate(0)" fill="#982f5b" stroke="#707070" stroke-width="1"/>
      </g>
      <g id="Group_10" data-name="Group 10" transform="translate(405.388 402.142)">
        <ellipse id="Ellipse_5" data-name="Ellipse 5" cx="23.366" cy="23.366" rx="23.366" ry="23.366" transform="translate(0)" fill="#982f5b" stroke="#707070" stroke-width="1"/>
      </g>
      <path id="Path_3" data-name="Path 3" d="M587.34,716.017a97.172,97.172,0,0,1,194.342,0Z" transform="translate(-139.73 -224.554)" fill="#982f5b" stroke="#707070" stroke-width="1"/>
      <path id="Path_210" data-name="Path 210" d="M786.12,623.892l0,0v0h0l0,0h.006l-1.24-2.072-.01-.018h0l-39.947-66.734h-.01L703.7,623.882v0h0v95.274h82.419V624.085Z" transform="translate(-137.607 -225.723)" fill="#982f5b" stroke="#707070" stroke-width="1"/>
      <rect id="Rectangle_130" data-name="Rectangle 130" width="81.785" height="95.277" transform="translate(648.512 398.158)" fill="#982f5b" stroke="#707070" stroke-width="1"/>
      <path id="Path_211" data-name="Path 211" d="M744.183,555.059l41.2,68.823h-.01l-41.2-68.823Z" transform="translate(-136.869 -225.723)" fill="#982f5b" stroke="#707070" stroke-width="1"/>
      <path id="Rectangle_6-2" data-name="Rectangle 6" d="M742.474,655.436h0a16.859,16.859,0,0,1,17.11,16.6l.682,45.1h0l-33.713.51h0l-.682-45.1a16.86,16.86,0,0,1,16.6-17.113Z" transform="translate(-137.203 -223.893)" fill="#982f5b" stroke="#707070" stroke-width="1"/>
      <ellipse id="Ellipse_7-2" data-name="Ellipse 7" cx="16.039" cy="16.039" rx="16.039" ry="16.039" transform="translate(673.47 431.579)" fill="#982f5b" stroke="#707070" stroke-width="1"/>
      <path id="Path_5" data-name="Path 5" d="M703.317,231.623a67.579,67.579,0,0,0-56.367,30.242,45.887,45.887,0,0,0-72.457,37.405h0a46.471,46.471,0,0,0,46.47,46.47h103.53a46.471,46.471,0,0,0,46.47-46.47h0a67.647,67.647,0,0,0-67.647-67.647Z" transform="translate(-139.964 -231.623)" fill="#982f5b" stroke="#707070" stroke-width="1" opacity="0.074" style="isolation: isolate"/>
      <path id="Path_7" data-name="Path 7" d="M242.4,362.874c15.561,0,29.263,8.553,37.279,21.539a28.764,28.764,0,0,1,17.575-6.036c16.758,0,30.344,14.631,30.344,32.68h0c0,18.28-13.76,33.1-30.734,33.1H228.4c-16.974,0-30.734-14.819-30.734-33.1h0C197.665,384.445,217.695,362.874,242.4,362.874Z" transform="translate(-146.837 -229.229)" fill="#982f5b" stroke="#707070" stroke-width="1" opacity="0.074" style="isolation: isolate"/>
      <path id="Path_6" data-name="Path 6" d="M968.916,347.6a57.922,57.922,0,0,0-57.922-57.923h0a57.648,57.648,0,0,0-31.49,9.3,76.268,76.268,0,0,0-143.957,11.774,48.734,48.734,0,0,0-64.578,46.06h0a48.708,48.708,0,0,0,48.706,48.708H910.994A57.922,57.922,0,0,0,968.916,347.6Z" transform="translate(-138.204 -231.232)" fill="#982f5b" stroke="#707070" stroke-width="1" opacity="0.124" style="isolation: isolate"/>
      <g id="Group_14" data-name="Group 14" transform="translate(165.946 314.482)">
        <ellipse id="Ellipse_8" data-name="Ellipse 8" cx="3.35" cy="3.35" rx="3.35" ry="3.35" transform="translate(14.397)" fill="#982f5b" stroke="#707070" stroke-width="1"/>
        <path id="Path_12" data-name="Path 12" d="M310.721,572.462a26.158,26.158,0,0,0,20.15,5.936c2.737-.365,5.817-1.552,6.591-4.2a8.415,8.415,0,0,0-.46-4.684l-4.4-14.834c-.877-2.953-1.935-11.055-6.678-8.585-3.744,1.949-5.8,8.683-7.668,12.195Z" transform="translate(-310.721 -540.378)" fill="#982f5b" stroke="#707070" stroke-width="1"/>
        <path id="Path_13" data-name="Path 13" d="M317.675,572.1c-.031,5.153-1.731,9.791-1.731,14.913,0,1.213-.368,2.595.815,3.305,1.139.684,1.6.247,1.788-.939.088-.545-.66-2.342-.659-3.231a16.125,16.125,0,0,1,.325-3.674,26.623,26.623,0,0,1,2.485-6.484Z" transform="translate(-310.627 -539.895)" fill="#982f5b" stroke="#707070" stroke-width="1"/>
        <path id="Path_14" data-name="Path 14" d="M325.124,574.022c1.546,4.916,1.346,9.851,2.912,14.728.371,1.155.443,2.582,1.788,2.9,1.294.306,1.6-.253,1.415-1.441-.083-.546-1.346-2.036-1.615-2.874a16.144,16.144,0,0,1-.815-3.6,26.56,26.56,0,0,1,.384-6.933Z" transform="translate(-310.458 -539.86)" fill="#982f5b" stroke="#707070" stroke-width="1"/>
        <path id="Path_15" data-name="Path 15" d="M321.914,556.038c-.952,3.282-5.689,6.71-5.309,10.352,2.87.691,5.1-5.8,7.183-7.183Z" transform="translate(-310.614 -540.188)" fill="#982f5b" stroke="#707070" stroke-width="1"/>
        <path id="Path_16" data-name="Path 16" d="M331.017,550.944c-.5,2.648,5.144,5.459,6.877,6.808.725.564,3.094,1.993,1.624,2.557-.972.373-2.689-.924-3.462-1.441-1.134-.763-2.138-1.775-3.314-2.45Z" transform="translate(-310.351 -540.281)" fill="#982f5b" stroke="#707070" stroke-width="1"/>
      </g>
      <g id="Group_15" data-name="Group 15" transform="translate(711.461 437.102)">
        <ellipse id="Ellipse_8-2" data-name="Ellipse 8-2" cx="3.35" cy="3.35" rx="3.35" ry="3.35" transform="translate(14.397)" fill="#982f5b" stroke="#707070" stroke-width="1"/>
        <path id="Path_12-2" data-name="Path 12-2" d="M846.464,692.885a26.158,26.158,0,0,0,20.15,5.936c2.737-.365,5.817-1.552,6.591-4.2a8.415,8.415,0,0,0-.46-4.684l-4.4-14.834c-.877-2.953-1.935-11.055-6.678-8.585-3.744,1.949-5.8,8.683-7.668,12.194Z" transform="translate(-846.464 -660.801)" fill="#982f5b" stroke="#707070" stroke-width="1"/>
        <path id="Path_13-2" data-name="Path 13-2" d="M853.418,692.522c-.031,5.153-1.731,9.791-1.731,14.913,0,1.213-.368,2.594.815,3.305,1.139.684,1.6.246,1.788-.939.088-.545-.66-2.342-.659-3.231a16.184,16.184,0,0,1,.325-3.674,26.626,26.626,0,0,1,2.485-6.484Z" transform="translate(-846.37 -660.318)" fill="#982f5b" stroke="#707070" stroke-width="1"/>
        <path id="Path_14-2" data-name="Path 14-2" d="M860.867,694.445c1.546,4.916,1.346,9.851,2.912,14.728.371,1.155.443,2.582,1.788,2.9,1.294.306,1.6-.253,1.415-1.441-.084-.546-1.346-2.036-1.615-2.874a16.2,16.2,0,0,1-.815-3.6,26.557,26.557,0,0,1,.384-6.933Z" transform="translate(-846.201 -660.283)" fill="#982f5b" stroke="#707070" stroke-width="1"/>
        <path id="Path_15-2" data-name="Path 15-2" d="M857.657,676.461c-.952,3.282-5.689,6.71-5.309,10.352,2.87.691,5.1-5.8,7.183-7.183Z" transform="translate(-846.357 -660.611)" fill="#982f5b" stroke="#707070" stroke-width="1"/>
        <path id="Path_16-2" data-name="Path 16-2" d="M866.76,671.367c-.5,2.647,5.144,5.459,6.877,6.808.725.564,3.094,1.993,1.624,2.557-.972.373-2.689-.924-3.462-1.441-1.134-.763-2.138-1.775-3.314-2.45Z" transform="translate(-846.094 -660.704)" fill="#982f5b" stroke="#707070" stroke-width="1"/>
      </g>
      <g id="Group_16" data-name="Group 16" transform="translate(741.097 438.348)">
        <ellipse id="Ellipse_8-3" data-name="Ellipse 8-3" cx="3.35" cy="3.35" rx="3.35" ry="3.35" transform="translate(8.605)" fill="#982f5b" stroke="#707070" stroke-width="1"/>
        <path id="Path_12-3" data-name="Path 12-3" d="M905.329,694.109a26.443,26.443,0,0,1-20.277,5.936c-2.749-.365-5.854-1.552-6.633-4.2a8.36,8.36,0,0,1,.463-4.684l4.429-14.834c.883-2.953,1.945-11.055,6.72-8.585,3.767,1.949,5.838,8.683,7.717,12.195Z" transform="translate(-875.52 -662.025)" fill="#982f5b" stroke="#707070" stroke-width="1"/>
        <path id="Path_13-3" data-name="Path 13-3" d="M897.94,693.746c.031,5.154,1.731,9.792,1.731,14.913,0,1.213.368,2.595-.815,3.305-1.139.684-1.6.247-1.788-.939-.088-.545.66-2.342.659-3.231a16.118,16.118,0,0,0-.325-3.674,26.532,26.532,0,0,0-2.484-6.484Z" transform="translate(-875.217 -661.542)" fill="#982f5b" stroke="#707070" stroke-width="1"/>
        <path id="Path_14-3" data-name="Path 14-3" d="M890.446,695.669c-1.546,4.916-1.346,9.851-2.912,14.728-.371,1.155-.443,2.582-1.788,2.9-1.294.305-1.6-.254-1.415-1.441.084-.546,1.346-2.037,1.615-2.875a16.13,16.13,0,0,0,.815-3.6,26.559,26.559,0,0,0-.384-6.933Z" transform="translate(-875.411 -661.507)" fill="#982f5b" stroke="#707070" stroke-width="1"/>
        <path id="Path_15-3" data-name="Path 15-3" d="M893.737,677.685c.952,3.282,5.689,6.71,5.309,10.352-2.87.691-5.1-5.8-7.183-7.183Z" transform="translate(-875.273 -661.835)" fill="#982f5b" stroke="#707070" stroke-width="1"/>
        <path id="Path_16-3" data-name="Path 16-3" d="M884.543,672.591c.5,2.647-5.144,5.459-6.877,6.808-.725.564-3.094,1.993-1.624,2.557.972.373,2.689-.924,3.462-1.441,1.134-.763,2.138-1.775,3.314-2.45Z" transform="translate(-875.57 -661.928)" fill="#982f5b" stroke="#707070" stroke-width="1"/>
      </g>
      <path id="Path_21" data-name="Path 21" d="M147.985,715.358a73.452,73.452,0,1,1,146.9-.548c0,.182,0,.365,0,.548Z" transform="translate(-147.744 -224.144)" fill="#982f5b" stroke="#707070" stroke-width="1"/>
      <path id="Path_22" data-name="Path 22" d="M156.441,724.367,515.068,974.1,549.2,1038.5,585.744,974.1,664.6,951.769l57.973-80.431v30.695l81.052-65.661L933.48,786.423l51.1-46.853L994.7,712.939l-846.748.8Z" transform="translate(-147.744 -222.844)" fill="#982f5b" stroke="#707070" stroke-width="1"/>
      <path id="Path_23" data-name="Path 23" d="M147.75,713.842l124.327,31.719,594.462,3.456,128.087-36.055-846.879.879Z" transform="translate(-147.748 -222.843)" fill="#982f5b" stroke="#707070" stroke-width="1"/>
      <path id="Path_212" data-name="Path 212" d="M866.692,623.892l-.01-.01H840.089l-1.821-2.96-40.46-65.863H770.723l39.845,66.727h0l1.245,2.1H784.9v.01h26.922c0,7.4,6.329,13.392,14.138,13.392s14.137-6,14.137-13.392h26.6Z" transform="translate(-136.385 -225.723)" fill="#982f5b" stroke="#707070" stroke-width="1"/>
      <g id="Group_194" data-name="Group 194" transform="translate(553.345 183.75)">
        <path id="Path_213" data-name="Path 213" d="M787.15,480.914l-.01-.01H760.546l-3.372-5.485-38.908-63.338H691.181l37.814,63.326h0l3.282,5.5H705.355v.01h81.8Z" transform="translate(-691.181 -412.081)" fill="#982f5b" stroke="#707070" stroke-width="1"/>
        <path id="Path_214" data-name="Path 214" d="M745.678,493.073c7.809,0,14.138-6,14.138-13.392H731.541C731.541,487.078,737.871,493.073,745.678,493.073Z" transform="translate(-690.445 -410.848)" fill="#982f5b" stroke="#707070" stroke-width="1"/>
      </g>
      <path id="Path_215" data-name="Path 215" d="M786.653,480.914l0-.01-2.422-3.525h0l-44.865-65.3H717.781L760.059,480.9h0l.006.01h0a13.278,13.278,0,0,0,26.061,3.7h.007l.008-.064a13.461,13.461,0,0,0,.511-3.64Z" transform="translate(-137.351 -228.331)" fill="#982f5b" stroke="#707070" stroke-width="1"/>
      <path id="Path_216" data-name="Path 216" d="M732.754,480.9h.007l-41.1-68.823H664.641l40.217,67.185h-.022l1,1.639v.01h0c0,.106.013.209.015.315l.05,1.007h0a13.466,13.466,0,0,0,26.788,0h0l.065-1.319v0h0Z" transform="translate(-138.32 -228.331)" fill="#982f5b" stroke="#707070" stroke-width="1"/>
      <path id="Path_217" data-name="Path 217" d="M812.3,623.882h.006l-1.246-2.088-.005-.007h0l-39.845-66.727H744.183l39.948,66.733,1.25,2.1a13.461,13.461,0,0,0,26.922,0Z" transform="translate(-136.869 -225.723)" fill="#982f5b" stroke="#707070" stroke-width="1"/>
      <path id="Path_218" data-name="Path 218" d="M866.117,625.335a13.8,13.8,0,0,0,.079-1.443h0v-.01h0L818.91,555.059H797.323L839.6,623.882h0l.006.01v.011a13.268,13.268,0,0,0,.079,1.431l0,.039h0a13.279,13.279,0,0,0,26.416,0h0Z" transform="translate(-135.899 -225.723)" fill="#982f5b" stroke="#707070" stroke-width="1"/>
    </g>
  </g>
</svg>
