<svg xmlns="http://www.w3.org/2000/svg" width="121.054" height="234.528" viewBox="0 0 121.054 234.528">
  <g id="Group_24" data-name="Group 24" transform="translate(-687.038 -398.137)">
    <g id="Group_17" data-name="Group 17" transform="translate(687.038 398.137)">
      <path id="Path_27" data-name="Path 27" d="M717.416,398.137l-30.378,50.738V631.251h60.757V448.875Z" transform="translate(-687.038 -398.137)" fill="#fff"/>
    </g>
    <path id="Path_28" data-name="Path 28" d="M911.328,398.137H855.519L885.9,448.875V631.251h60.3V448.875Z" transform="translate(-138.103)" fill="#162a2f"/>
    <g id="Group_18" data-name="Group 18" transform="translate(704.989 586.99)">
      <path id="Rectangle_19" data-name="Rectangle 19" d="M12.428,0h0A12.428,12.428,0,0,1,24.855,12.428V45.675a0,0,0,0,1,0,0H0a0,0,0,0,1,0,0V12.428A12.428,12.428,0,0,1,12.428,0Z" transform="translate(0 0)" fill="#982f5b"/>
    </g>
    <g id="Group_19" data-name="Group 19" transform="translate(704.989 480.448)">
      <circle id="Ellipse_9" data-name="Ellipse 9" cx="12.428" cy="12.428" r="12.428" transform="translate(0)" fill="#982f5b"/>
    </g>
    <g id="Group_20" data-name="Group 20" transform="translate(766.119 481.052)">
      <circle id="Ellipse_10" data-name="Ellipse 10" cx="11.823" cy="11.823" r="11.823" transform="translate(0 0)" fill="#982f5b"/>
    </g>
    <g id="Group_21" data-name="Group 21" transform="translate(766.119 516.095)">
      <circle id="Ellipse_11" data-name="Ellipse 11" cx="11.823" cy="11.823" r="11.823" transform="translate(0 0)" fill="#982f5b"/>
    </g>
    <g id="Group_22" data-name="Group 22" transform="translate(766.119 551.137)">
      <circle id="Ellipse_12" data-name="Ellipse 12" cx="11.823" cy="11.823" r="11.823" transform="translate(0 0)" fill="#982f5b"/>
    </g>
    <g id="Group_23" data-name="Group 23" transform="translate(766.119 586.18)">
      <circle id="Ellipse_13" data-name="Ellipse 13" cx="11.823" cy="11.823" r="11.823" transform="translate(0 0)" fill="#982f5b"/>
    </g>
  </g>
</svg>
